<svg xmlns="http://www.w3.org/2000/svg" xmlns:xlink="http://www.w3.org/1999/xlink" width="232" height="232" viewBox="0 0 232 232">
  <defs>
    <clipPath id="clip-path">
      <rect width="232" height="232" fill="none"/>
    </clipPath>
    <clipPath id="clip-path-2">
      <rect id="Rectangle_52" data-name="Rectangle 52" width="198.196" height="198.196" fill="#fff"/>
    </clipPath>
  </defs>
  <g id="Repeat_Grid_1" data-name="Repeat Grid 1" clip-path="url(#clip-path)">
    <g id="Group_67" data-name="Group 67" transform="translate(-888 -4647.746)">
      <path id="Path_145" data-name="Path 145" d="M20,0H212a20,20,0,0,1,20,20V212a20,20,0,0,1-20,20H20A20,20,0,0,1,0,212V20A20,20,0,0,1,20,0Z" transform="translate(888 4647.746)" fill="#1565d8" opacity="0.119"/>
      <g id="Group_66" data-name="Group 66" transform="translate(904.535 4664.418)">
        <g id="Group_65" data-name="Group 65" clip-path="url(#clip-path-2)">
          <g id="Group_64" data-name="Group 64">
            <path id="Path_67" data-name="Path 67" d="M961.706,4658H905.078a7.082,7.082,0,0,0-7.078,7.077v56.631a7.081,7.081,0,0,0,7.078,7.077h56.628a7.081,7.081,0,0,0,7.078-7.077v-56.631A7.082,7.082,0,0,0,961.706,4658Zm-7.078,56.631H912.157v-42.478h42.471Z" transform="translate(-898 -4657.999)" fill="#fff"/>
            <path id="Path_68" data-name="Path 68" d="M922.2,4670.84a7.081,7.081,0,0,0-7.078,7.077v14.17a7.078,7.078,0,0,0,14.157,0v-14.17A7.082,7.082,0,0,0,922.2,4670.84Z" transform="translate(-886.81 -4649.61)" fill="#fff"/>
            <path id="Path_69" data-name="Path 69" d="M961.706,4735.06H905.078a7.072,7.072,0,0,0-7.078,7.077v56.631a7.082,7.082,0,0,0,7.078,7.077h56.628a7.082,7.082,0,0,0,7.078-7.077v-56.631A7.072,7.072,0,0,0,961.706,4735.06Zm-7.078,56.615H912.157v-42.461h42.471Z" transform="translate(-898 -4607.643)" fill="#fff"/>
            <path id="Path_70" data-name="Path 70" d="M922.2,4747.9a7.081,7.081,0,0,0-7.078,7.077v14.154a7.078,7.078,0,0,0,14.157,0v-14.154A7.082,7.082,0,0,0,922.2,4747.9Z" transform="translate(-886.81 -4599.254)" fill="#fff"/>
            <path id="Path_71" data-name="Path 71" d="M1038.764,4735.06H982.135a7.072,7.072,0,0,0-7.078,7.077v56.631a7.082,7.082,0,0,0,7.078,7.077h56.628a7.082,7.082,0,0,0,7.078-7.077v-56.631A7.072,7.072,0,0,0,1038.764,4735.06Zm-7.078,56.615H989.214v-42.461h42.471Z" transform="translate(-847.646 -4607.643)" fill="#fff"/>
            <path id="Path_72" data-name="Path 72" d="M999.259,4747.9a7.082,7.082,0,0,0-7.078,7.077v14.154a7.078,7.078,0,0,0,14.157,0v-14.154A7.082,7.082,0,0,0,999.259,4747.9Z" transform="translate(-836.456 -4599.254)" fill="#fff"/>
            <path id="Path_73" data-name="Path 73" d="M1030.371,4658H994.979a7.076,7.076,0,1,0,0,14.153h28.314v28.324a7.078,7.078,0,0,0,14.157,0v-35.4A7.082,7.082,0,0,0,1030.371,4658Z" transform="translate(-839.253 -4657.999)" fill="#fff"/>
            <path id="Path_74" data-name="Path 74" d="M952.169,4752.18a7.081,7.081,0,0,0-7.079,7.076v28.324a7.079,7.079,0,0,0,14.157,0v-28.324A7.082,7.082,0,0,0,952.169,4752.18Z" transform="translate(-867.227 -4596.456)" fill="#fff"/>
            <path id="Path_75" data-name="Path 75" d="M998.75,4700.809H963.36a7.082,7.082,0,0,0-7.08,7.077v28.308H935.046a7.085,7.085,0,0,0,0,14.17H963.36a7.082,7.082,0,0,0,7.078-7.077v-28.324H998.75a7.077,7.077,0,1,0,0-14.153Z" transform="translate(-878.418 -4630.024)" fill="#fff"/>
            <path id="Path_76" data-name="Path 76" d="M950.516,4709.37H922.2a7.077,7.077,0,1,0,0,14.154h28.314a7.077,7.077,0,1,0,0-14.154Z" transform="translate(-886.81 -4624.431)" fill="#fff"/>
            <path id="Path_77" data-name="Path 77" d="M987.561,4699.164H959.247v-21.247a7.079,7.079,0,0,0-14.157,0v28.324a7.082,7.082,0,0,0,7.079,7.077h35.393a7.077,7.077,0,1,0,0-14.154Z" transform="translate(-867.228 -4649.61)" fill="#fff"/>
            <path id="Path_78" data-name="Path 78" d="M1037.11,4686.306H1008.8v-21.23a7.081,7.081,0,0,0-7.078-7.077H952.169a7.076,7.076,0,1,0,0,14.153h42.469v21.231a7.085,7.085,0,0,0,7.078,7.093h35.393a7.085,7.085,0,0,0,0-14.17Z" transform="translate(-867.227 -4657.999)" fill="#fff"/>
            <path id="Path_79" data-name="Path 79" d="M986.417,4687.969a7.071,7.071,0,0,0-7.078,7.076v28.308a7.078,7.078,0,0,0,14.157,0v-28.308A7.07,7.07,0,0,0,986.417,4687.969Z" transform="translate(-844.848 -4638.415)" fill="#fff"/>
            <path id="Path_80" data-name="Path 80" d="M1027.573,4692.25H999.259a7.077,7.077,0,1,0,0,14.154h28.314a7.077,7.077,0,1,0,0-14.154Z" transform="translate(-836.456 -4635.618)" fill="#fff"/>
            <path id="Path_81" data-name="Path 81" d="M1027.573,4705.089H999.259a7.077,7.077,0,1,0,0,14.154h21.236v21.246a7.078,7.078,0,0,0,14.157,0v-28.324A7.082,7.082,0,0,0,1027.573,4705.089Z" transform="translate(-836.456 -4627.228)" fill="#fff"/>
            <path id="Path_82" data-name="Path 82" d="M1017.528,4717.929H982.135a7.085,7.085,0,0,0,0,14.17h35.392a7.085,7.085,0,0,0,0-14.17Z" transform="translate(-847.646 -4618.837)" fill="#fff"/>
            <path id="Path_83" data-name="Path 83" d="M980.483,4739.339H952.169a7.077,7.077,0,1,0,0,14.154H973.4v42.478a7.078,7.078,0,0,0,14.157,0v-49.555A7.072,7.072,0,0,0,980.483,4739.339Z" transform="translate(-867.227 -4604.847)" fill="#fff"/>
            <path id="Path_84" data-name="Path 84" d="M972.09,4726.5h-7.079a7.077,7.077,0,1,0,0,14.154h7.079a7.077,7.077,0,1,0,0-14.154Z" transform="translate(-858.836 -4613.237)" fill="#fff"/>
            <path id="Path_85" data-name="Path 85" d="M972.09,4713.65h-7.079a7.077,7.077,0,1,0,0,14.153h7.079a7.077,7.077,0,1,0,0-14.153Z" transform="translate(-858.836 -4621.635)" fill="#fff"/>
            <path id="Path_86" data-name="Path 86" d="M926.314,4722.21H905.078a7.085,7.085,0,0,0,0,14.17h21.236a7.085,7.085,0,0,0,0-14.17Z" transform="translate(-898 -4616.041)" fill="#fff"/>
            <path id="Path_87" data-name="Path 87" d="M965.011,4670.84a7.082,7.082,0,0,0-7.078,7.077v7.094a7.078,7.078,0,0,0,14.157,0v-7.094A7.081,7.081,0,0,0,965.011,4670.84Z" transform="translate(-858.836 -4649.61)" fill="#fff"/>
            <path id="Path_88" data-name="Path 88" d="M912.157,4709.37h-7.079a7.077,7.077,0,1,0,0,14.154h7.079a7.077,7.077,0,1,0,0-14.154Z" transform="translate(-898 -4624.431)" fill="#fff"/>
          </g>
        </g>
      </g>
    </g>
  </g>
</svg>
