<svg width="1140" height="523" viewBox="0 0 1140 523" fill="none" xmlns="http://www.w3.org/2000/svg">
<rect width="1140" height="523" rx="16" fill="#1565D8"/>
<mask id="mask0" mask-type="alpha" maskUnits="userSpaceOnUse" x="0" y="0" width="1140" height="523">
<rect width="1140" height="523" rx="16" fill="white"/>
</mask>
<g mask="url(#mask0)">
<path opacity="0.15" fill-rule="evenodd" clip-rule="evenodd" d="M-209 551.424C118.505 551.424 384 174.104 384 -291.345C384 -756.793 118.505 -1134.11 -209 -1134.11C-536.505 -1134.11 -802 -756.793 -802 -291.345C-802 174.104 -536.505 551.424 -209 551.424ZM-209 267.185C-426.048 267.185 -602 17.1222 -602 -291.345C-602 -599.813 -426.048 -849.875 -209 -849.875C8.04791 -849.875 184 -599.813 184 -291.345C184 17.1222 8.04791 267.185 -209 267.185Z" fill="url(#paint0_linear)"/>
<path opacity="0.15" fill-rule="evenodd" clip-rule="evenodd" d="M1266 1652.85C1593.5 1652.85 1859 1275.53 1859 810.081C1859 344.633 1593.5 -32.6875 1266 -32.6875C938.495 -32.6875 673 344.633 673 810.081C673 1275.53 938.495 1652.85 1266 1652.85ZM1266 1368.61C1048.95 1368.61 873 1118.55 873 810.081C873 501.614 1048.95 251.551 1266 251.551C1483.05 251.551 1659 501.614 1659 810.081C1659 1118.55 1483.05 1368.61 1266 1368.61Z" fill="url(#paint1_linear)"/>
</g>
<defs>
<linearGradient id="paint0_linear" x1="384" y1="-1131.87" x2="-798.838" y2="-1131.87" gradientUnits="userSpaceOnUse">
<stop stop-color="white" stop-opacity="0.01"/>
<stop offset="1" stop-color="white"/>
</linearGradient>
<linearGradient id="paint1_linear" x1="1859" y1="-30.4409" x2="676.162" y2="-30.4409" gradientUnits="userSpaceOnUse">
<stop stop-color="white"/>
<stop offset="1" stop-color="white" stop-opacity="0.01"/>
</linearGradient>
</defs>
</svg>
