<svg width="140" height="140" viewBox="0 0 140 140" fill="none" xmlns="http://www.w3.org/2000/svg">
<rect width="140" height="140" rx="8" fill="white"/>
<g clip-path="url(#clip0)">
<path d="M48.5287 10H14.281C11.9167 10 10 11.9167 10 14.281V48.5287C10 50.8931 11.9167 52.8097 14.281 52.8097H48.5287C50.8931 52.8097 52.8097 50.8931 52.8097 48.5287V14.281C52.8097 11.9167 50.8931 10 48.5287 10ZM44.2476 44.2476H18.5618V18.5618H44.2476V44.2476Z" fill="black"/>
<path d="M31.4048 22.843C29.0404 22.843 27.1238 24.7596 27.1238 27.124V35.6858C27.1238 38.0502 29.0404 39.9669 31.4048 39.9669C33.7692 39.9669 35.6859 38.0502 35.6859 35.6858V27.124C35.6859 24.7596 33.7692 22.843 31.4048 22.843Z" fill="black"/>
<path d="M48.5287 87.0574H14.281C11.9167 87.0574 10 88.974 10 91.3384V125.586C10 127.95 11.9167 129.867 14.281 129.867H48.5287C50.8931 129.867 52.8097 127.95 52.8097 125.586V91.3384C52.8097 88.974 50.8931 87.0574 48.5287 87.0574ZM44.2476 121.305H18.5618V95.6192H44.2476V121.305Z" fill="black"/>
<path d="M31.4048 99.9003C29.0404 99.9003 27.1238 101.817 27.1238 104.181V112.743C27.1238 115.108 29.0404 117.024 31.4048 117.024C33.7692 117.024 35.6859 115.108 35.6859 112.743V104.181C35.6859 101.817 33.7692 99.9003 31.4048 99.9003Z" fill="black"/>
<path d="M125.586 87.0574H91.3384C88.974 87.0574 87.0574 88.974 87.0574 91.3384V125.586C87.0574 127.95 88.974 129.867 91.3384 129.867H125.586C127.95 129.867 129.867 127.95 129.867 125.586V91.3384C129.867 88.974 127.95 87.0574 125.586 87.0574ZM121.305 121.305H95.6192V95.6192H121.305V121.305Z" fill="black"/>
<path d="M108.462 99.9003C106.098 99.9003 104.181 101.817 104.181 104.181V112.743C104.181 115.108 106.098 117.024 108.462 117.024C110.826 117.024 112.743 115.108 112.743 112.743V104.181C112.743 101.817 110.826 99.9003 108.462 99.9003Z" fill="black"/>
<path d="M125.586 10H104.181C101.817 10 99.9001 11.9167 99.9001 14.281C99.9001 16.6454 101.817 18.5621 104.181 18.5621H121.305V35.6858C121.305 38.0502 123.222 39.9668 125.586 39.9668C127.951 39.9668 129.867 38.0502 129.867 35.6858V14.281C129.867 11.9167 127.95 10 125.586 10Z" fill="black"/>
<path d="M61.3716 104.181C59.0072 104.181 57.0906 106.098 57.0906 108.462V125.586C57.0906 127.95 59.0072 129.867 61.3716 129.867C63.736 129.867 65.6527 127.95 65.6527 125.586V108.462C65.6527 106.098 63.736 104.181 61.3716 104.181Z" fill="black"/>
<path d="M82.7762 52.8097H61.3715C59.0071 52.8097 57.0905 54.7263 57.0905 57.0907V74.2144H44.2476C41.8832 74.2144 39.9666 76.1311 39.9666 78.4955C39.9666 80.8599 41.8832 82.7765 44.2476 82.7765H61.3715C63.7359 82.7765 65.6526 80.8599 65.6526 78.4955V61.3715H82.7765C85.1409 61.3715 87.0575 59.4549 87.0575 57.0905C87.0573 54.7263 85.1406 52.8097 82.7762 52.8097Z" fill="black"/>
<path d="M48.5288 61.3715H31.4048C29.0404 61.3715 27.1238 63.2881 27.1238 65.6525C27.1238 68.0169 29.0404 69.9336 31.4048 69.9336H48.5288C50.8932 69.9336 52.8098 68.0169 52.8098 65.6525C52.8098 63.2881 50.8932 61.3715 48.5288 61.3715Z" fill="black"/>
<path d="M82.7764 39.9669H65.6524V27.124C65.6524 24.7596 63.7358 22.843 61.3714 22.843C59.007 22.843 57.0903 24.7596 57.0903 27.124V44.2479C57.0903 46.6123 59.007 48.529 61.3714 48.529H82.7761C85.1405 48.529 87.0571 46.6123 87.0571 44.2479C87.0574 41.8835 85.1407 39.9669 82.7764 39.9669Z" fill="black"/>
<path d="M112.743 27.1239H95.6192V14.281C95.6192 11.9167 93.7026 10 91.3384 10H61.3716C59.0072 10 57.0906 11.9167 57.0906 14.281C57.0906 16.6454 59.0072 18.5621 61.3716 18.5621H87.0574V31.405C87.0574 33.7694 88.974 35.686 91.3384 35.686H112.743C115.108 35.686 117.024 33.7694 117.024 31.405C117.024 29.0406 115.108 27.1239 112.743 27.1239Z" fill="black"/>
<path d="M95.6192 39.9667C93.2548 39.9667 91.3381 41.8834 91.3381 44.2478V61.3715C91.3381 63.7359 93.2548 65.6525 95.6192 65.6525C97.9836 65.6525 99.9002 63.7359 99.9002 61.3715V44.2475C99.9002 41.8834 97.9836 39.9667 95.6192 39.9667Z" fill="black"/>
<path d="M125.586 44.2477H108.462C106.098 44.2477 104.181 46.1643 104.181 48.5287C104.181 50.8931 106.098 52.8098 108.462 52.8098H125.586C127.95 52.8098 129.867 50.8931 129.867 48.5287C129.867 46.1643 127.95 44.2477 125.586 44.2477Z" fill="black"/>
<path d="M125.586 57.0905H108.462C106.098 57.0905 104.181 59.0071 104.181 61.3715C104.181 63.7359 106.098 65.6525 108.462 65.6525H121.305V78.4954C121.305 80.8598 123.221 82.7765 125.586 82.7765C127.95 82.7765 129.867 80.8598 129.867 78.4954V61.3715C129.867 59.0071 127.95 57.0905 125.586 57.0905Z" fill="black"/>
<path d="M112.743 69.9334H91.3384C88.974 69.9334 87.0574 71.8501 87.0574 74.2145C87.0574 76.5789 88.974 78.4955 91.3384 78.4955H112.743C115.108 78.4955 117.024 76.5789 117.024 74.2145C117.024 71.8501 115.108 69.9334 112.743 69.9334Z" fill="black"/>
<path d="M78.4955 91.3383H61.3716C59.0072 91.3383 57.0906 93.2549 57.0906 95.6193C57.0906 97.9837 59.0072 99.9001 61.3716 99.9001H74.2145V125.586C74.2145 127.95 76.1312 129.867 78.4955 129.867C80.8599 129.867 82.7766 127.95 82.7766 125.586V95.6191C82.7763 93.2549 80.8597 91.3383 78.4955 91.3383Z" fill="black"/>
<path d="M78.4954 78.4954H74.2144C71.85 78.4954 69.9333 80.4121 69.9333 82.7765C69.9333 85.1409 71.85 87.0573 74.2144 87.0573H78.4954C80.8598 87.0573 82.7765 85.1406 82.7765 82.7762C82.7765 80.4118 80.8596 78.4954 78.4954 78.4954Z" fill="black"/>
<path d="M78.4954 65.6526H74.2144C71.85 65.6526 69.9333 67.5693 69.9333 69.9337C69.9333 72.2981 71.85 74.2145 74.2144 74.2145H78.4954C80.8598 74.2145 82.7765 72.2978 82.7765 69.9334C82.7765 67.569 80.8596 65.6526 78.4954 65.6526Z" fill="black"/>
<path d="M27.1239 74.2144H14.281C11.9167 74.2144 10 76.1311 10 78.4955C10 80.8599 11.9167 82.7765 14.281 82.7765H27.1239C29.4883 82.7765 31.405 80.8599 31.405 78.4955C31.405 76.1311 29.4881 74.2144 27.1239 74.2144Z" fill="black"/>
<path d="M74.2144 22.843C71.85 22.843 69.9333 24.7596 69.9333 27.124V31.405C69.9333 33.7694 71.85 35.6861 74.2144 35.6861C76.5788 35.6861 78.4954 33.7694 78.4954 31.405V27.124C78.4954 24.7596 76.5788 22.843 74.2144 22.843Z" fill="black"/>
<path d="M18.5618 61.3715H14.281C11.9166 61.3715 10 63.2881 10 65.6525C10 68.0169 11.9166 69.9336 14.281 69.9336H18.5621C20.9265 69.9336 22.8431 68.0169 22.8431 65.6525C22.8431 63.2881 20.9262 61.3715 18.5618 61.3715Z" fill="black"/>
</g>
<defs>
<clipPath id="clip0">
<rect width="119.867" height="119.867" fill="white" transform="translate(10 10)"/>
</clipPath>
</defs>
</svg>
