<svg xmlns="http://www.w3.org/2000/svg" width="27" height="27" viewBox="0 0 27 27">
  <g id="Group_104" data-name="Group 104" transform="translate(-0.283 0.35)">
    <g id="Group_103" data-name="Group 103" transform="translate(0 0)">
      <path id="Path_139" data-name="Path 139" d="M837.2,1673a12.746,12.746,0,1,0-15.612-9.013A12.748,12.748,0,0,0,837.2,1673Z" transform="translate(-819.912 -1646.952)" fill="#31a1d3"/>
      <rect id="Rectangle_79" data-name="Rectangle 79" width="27" height="27" rx="13.5" transform="translate(0.283 -0.35)" fill="#31a1d3"/>
      <path id="Path_140" data-name="Path 140" d="M831.5,1656.932c.458,0,.906-.03,1.366-.03s.906-.037,1.365-.037c.127.007.155-.038.163-.164-.022-.7-.033-1.364-.054-2.065.008-.127.036-.179.163-.172.42.015.79-.007,1.2-.03.127.008.137.045.119.134.011.664.033,1.364.044,2.028a.292.292,0,0,1,0,.164c.332,0,.7-.022,1.034-.022.039-.015.057-.1.085-.149-.019-.537-.027-1.036-.007-1.58l-.009-.5c-.02-.075.008-.127.1-.1.42.008.829-.015,1.287-.015.039-.008.049.03.088.015.019.537.027,1.036.036,1.536a3.369,3.369,0,0,1,0,.619c-.008.127.041.156.168.164l1.438.238a3.537,3.537,0,0,1,1.259.664,2.42,2.42,0,0,1,.722,1.767,2.11,2.11,0,0,1-1,2.013c-.039.015-.068.06-.145.082.187.074.363.112.549.186a2.512,2.512,0,0,1,1.286,1.073,3.127,3.127,0,0,1,.277,1.334,3.937,3.937,0,0,1-.315,1.625,2.506,2.506,0,0,1-1.364,1.282,8.256,8.256,0,0,1-2.39.559.169.169,0,0,0-.2.179c.011.664.033,1.364.044,2.028,0,.164.013.2-.2.179-.37.015-.789.007-1.16.022-.127-.008-.137-.052-.119-.134-.022-.708-.043-1.409-.016-2.08-.021-.075.007-.127-.081-.142-.332,0-.663.007-1.033.022.016.373-.007.753.009,1.126s-.007.745.009,1.118c-.018.089-.007.127-.134.119-.42-.015-.829.015-1.238.037-.127-.008-.137-.045-.119-.134-.022-.7-.043-1.4-.016-2.072-.01-.037.018-.09,0-.164-.956,0-1.911.007-2.906.022.036-.171.043-.3.08-.477.062-.387.123-.783.156-1.125.008-.127.046-.134.163-.164a7.279,7.279,0,0,0,.906-.037.448.448,0,0,0,.489-.507c-.026-2.117-.052-4.234-.127-6.374a.7.7,0,0,0-.675-.656c-.381-.022-.752-.007-1.082,0-.078.022-.127-.007-.109-.1,0-.455-.007-.954,0-1.409C831.476,1656.984,831.476,1656.984,831.5,1656.932Zm4.552,9.065a.175.175,0,0,1,.088.015,11.122,11.122,0,0,0,2.046-.127,3.192,3.192,0,0,0,1.29-.469,1.289,1.289,0,0,0,.132-2,2.529,2.529,0,0,0-1-.477,8.125,8.125,0,0,0-2.479-.089c-.127-.008-.116.037-.124.164.026.41,0,.79.03,1.2C836.026,1664.8,836.055,1665.37,836.056,1666Zm2.2-4.838a2.673,2.673,0,0,0,.406-.194,1.168,1.168,0,0,0,.291-1.864,1.9,1.9,0,0,0-1.091-.5,12.117,12.117,0,0,0-1.805-.06c-.127-.007-.155.045-.163.172.025.865.039,1.692.024,2.572-.018.09.031.119.119.134.166,0,.293.007.458.007A12.3,12.3,0,0,0,838.257,1661.158Z" transform="translate(-823.269 -1648.593)" fill="#fff"/>
    </g>
  </g>
</svg>
