<svg xmlns="http://www.w3.org/2000/svg" width="27" height="27" viewBox="0 0 27 27">
  <rect id="Rectangle_73" data-name="Rectangle 73" width="27" height="27" rx="13.5" fill="#31a1d3"/>
  <g id="noun_video_cam_2584221" data-name="noun_video cam_2584221" transform="translate(6.212 8.916)">
    <path id="Path_58" data-name="Path 58" d="M17.319,11.5l2.137,2.137a.383.383,0,0,0,.653-.271V9.09a.383.383,0,0,0-.653-.271l-2.137,2.138A.383.383,0,0,0,17.319,11.5Z" transform="translate(-6.334 -6.635)" fill="#fff"/>
    <path id="Path_59" data-name="Path 59" d="M16.931,11.651a.765.765,0,0,1,0-1.082l2.137-2.137a.765.765,0,0,1,1.306.541v4.275a.765.765,0,0,1-1.306.541Zm.541-.541,2.137,2.137V8.972Z" transform="translate(-6.217 -6.517)" fill="#fff" fill-rule="evenodd"/>
    <path id="Path_60" data-name="Path 60" d="M3,7.531A1.531,1.531,0,0,1,4.531,6h8.419A1.531,1.531,0,0,1,14.48,7.531v6.123a1.531,1.531,0,0,1-1.531,1.531H4.531A1.531,1.531,0,0,1,3,13.653Z" transform="translate(-3 -6)" fill="#fff"/>
  </g>
</svg>
