<svg xmlns="http://www.w3.org/2000/svg" width="27" height="27" viewBox="0 0 27 27">
  <rect id="Rectangle_69" data-name="Rectangle 69" width="27" height="27" rx="13.5" fill="#31a1d3"/>
  <path id="Path_136" data-name="Path 136" d="M445.83,1664.988l-2.582,2.579a1.679,1.679,0,0,1-2.33,0,1.659,1.659,0,0,1-.484-1.163,1.657,1.657,0,0,1,.126-.634,1.565,1.565,0,0,1,.358-.529l2.582-2.587a.662.662,0,0,0,.2-.47.68.68,0,0,0-.2-.477.673.673,0,0,0-.945,0l-2.582,2.594a2.982,2.982,0,0,0,4.213,4.212l2.589-2.587a.662.662,0,0,0,0-.939.656.656,0,0,0-.945,0Zm5.71-8.044a3,3,0,0,0-4.213,0l-2.589,2.587a.662.662,0,0,0-.2.47.656.656,0,0,0,.051.254.626.626,0,0,0,.145.216.662.662,0,0,0,.216.149.655.655,0,0,0,.512,0,.662.662,0,0,0,.216-.149l2.582-2.579a1.679,1.679,0,0,1,2.33,0,1.659,1.659,0,0,1,.484,1.163,1.657,1.657,0,0,1-.126.634,1.563,1.563,0,0,1-.358.529l-2.582,2.587a.628.628,0,0,0-.145.216.642.642,0,0,0-.051.253.616.616,0,0,0,.051.253.733.733,0,0,0,.145.224.635.635,0,0,0,.217.142.652.652,0,0,0,.511,0,.635.635,0,0,0,.217-.142l2.582-2.594a2.987,2.987,0,0,0,0-4.212Zm-7.894,7.894a.643.643,0,0,0,.218.142.653.653,0,0,0,.511,0,.634.634,0,0,0,.217-.142l3.275-3.273a.671.671,0,0,0,0-.947.673.673,0,0,0-.945,0l-3.275,3.273a.634.634,0,0,0-.145.216.693.693,0,0,0-.051.261.684.684,0,0,0,.051.254A.636.636,0,0,0,443.646,1664.839Z" transform="translate(-431.929 -1649.828)" fill="#fff"/>
</svg>
