<svg xmlns="http://www.w3.org/2000/svg" xmlns:xlink="http://www.w3.org/1999/xlink" width="27" height="27" viewBox="0 0 27 27">
  <defs>
    <clipPath id="clip-path">
      <rect id="Rectangle_33" data-name="Rectangle 33" width="15.973" height="15.973" fill="none"/>
    </clipPath>
  </defs>
  <rect id="Rectangle_71" data-name="Rectangle 71" width="27" height="27" rx="13.5" fill="#31a1d3"/>
  <g id="Group_100" data-name="Group 100" transform="translate(4.965 4.918)">
    <g id="Group_26" data-name="Group 26" transform="translate(0 0)" clip-path="url(#clip-path)">
      <g id="Group_25" data-name="Group 25" transform="translate(1.99 0.328)">
        <path id="Path_38" data-name="Path 38" d="M1230.953,1670.042s-5.994-3.138-5.994-9.318a5.99,5.99,0,1,1,11.98,0C1236.94,1666.9,1230.953,1670.042,1230.953,1670.042Zm0-14.641a5.326,5.326,0,0,0-5.323,5.323c0,4.912,4.145,7.82,5.323,8.543,1.178-.723,5.323-3.615,5.323-8.543A5.326,5.326,0,0,0,1230.953,1655.4Zm0,8.312a2.993,2.993,0,1,1,3-2.989A2.991,2.991,0,0,1,1230.953,1663.713Zm0-5.323a2.33,2.33,0,1,0,2.326,2.333A2.332,2.332,0,0,0,1230.953,1658.39Z" transform="translate(-1224.96 -1654.73)" fill="#fff" fill-rule="evenodd"/>
      </g>
    </g>
  </g>
</svg>
