<svg xmlns="http://www.w3.org/2000/svg" width="70" height="70" viewBox="0 0 70 70">
  <g id="Ellipse_2" data-name="Ellipse 2" fill="#fff" stroke="#1565d8" stroke-width="1">
    <circle cx="35" cy="35" r="35" stroke="none"/>
    <circle cx="35" cy="35" r="34.5" fill="none"/>
  </g>
  <circle id="Ellipse_3" data-name="Ellipse 3" cx="24" cy="24" r="24" transform="translate(11 11)" fill="#f0f8fc"/>
  <g id="ico_24_arrows_next_ui" data-name="ico / 24 / arrows / next_ui" transform="translate(23 23)">
    <path id="Icon_color" data-name="Icon color" d="M.148,1.922a.5.5,0,0,1,0-.71L1.208.152a.48.48,0,0,1,.7,0l9.19,9.19a.75.75,0,0,1,.22.53v.26a.75.75,0,0,1-.22.53l-9.19,9.19a.48.48,0,0,1-.7,0l-1.06-1.06a.5.5,0,0,1,0-.71L8.228,10Z" transform="translate(6.682 1.998)"/>
  </g>
</svg>
