<svg width="42" height="40" viewBox="0 0 42 40" fill="none" xmlns="http://www.w3.org/2000/svg">
<rect opacity="0.1" width="42" height="40" rx="20" fill="#5A7184"/>
<path d="M28.9584 20.5209C28.9584 20.0209 28.8959 19.6459 28.8334 19.2396H21.4584V21.8959H25.8334C25.6771 23.0521 24.5209 25.2396 21.4584 25.2396C18.8021 25.2396 16.6459 23.0521 16.6459 20.3334C16.6459 15.9896 21.7709 13.9896 24.5209 16.6459L26.6459 14.6146C25.3021 13.3646 23.5209 12.5834 21.4584 12.5834C17.1459 12.5834 13.7084 16.0521 13.7084 20.3334C13.7084 24.6459 17.1459 28.0834 21.4584 28.0834C25.9271 28.0834 28.9584 24.9584 28.9584 20.5209Z" fill="#5A7184"/>
</svg>
