<svg width="40" height="40" viewBox="0 0 40 40" fill="none" xmlns="http://www.w3.org/2000/svg">
<rect opacity="0.1" width="40" height="40" rx="20" fill="#5A7184"/>
<path d="M20.3333 16.7396C18.3333 16.7396 16.7395 18.3646 16.7395 20.3334C16.7395 22.3334 18.3333 23.9271 20.3333 23.9271C22.302 23.9271 23.927 22.3334 23.927 20.3334C23.927 18.3646 22.302 16.7396 20.3333 16.7396ZM20.3333 22.6771C19.052 22.6771 17.9895 21.6459 17.9895 20.3334C17.9895 19.0521 19.0208 18.0209 20.3333 18.0209C21.6145 18.0209 22.6458 19.0521 22.6458 20.3334C22.6458 21.6459 21.6145 22.6771 20.3333 22.6771ZM24.8958 16.6146C24.8958 16.1459 24.5208 15.7709 24.052 15.7709C23.5833 15.7709 23.2083 16.1459 23.2083 16.6146C23.2083 17.0834 23.5833 17.4584 24.052 17.4584C24.5208 17.4584 24.8958 17.0834 24.8958 16.6146ZM27.2708 17.4584C27.2083 16.3334 26.9583 15.3334 26.1458 14.5209C25.3333 13.7084 24.3333 13.4584 23.2083 13.3959C22.052 13.3334 18.5833 13.3334 17.427 13.3959C16.302 13.4584 15.3333 13.7084 14.4895 14.5209C13.677 15.3334 13.427 16.3334 13.3645 17.4584C13.302 18.6146 13.302 22.0834 13.3645 23.2396C13.427 24.3646 13.677 25.3334 14.4895 26.1771C15.3333 26.9896 16.302 27.2396 17.427 27.3021C18.5833 27.3646 22.052 27.3646 23.2083 27.3021C24.3333 27.2396 25.3333 26.9896 26.1458 26.1771C26.9583 25.3334 27.2083 24.3646 27.2708 23.2396C27.3333 22.0834 27.3333 18.6146 27.2708 17.4584ZM25.7708 24.4584C25.552 25.0834 25.052 25.5521 24.4583 25.8021C23.5208 26.1771 21.3333 26.0834 20.3333 26.0834C19.302 26.0834 17.1145 26.1771 16.2083 25.8021C15.5833 25.5521 15.1145 25.0834 14.8645 24.4584C14.4895 23.5521 14.5833 21.3646 14.5833 20.3334C14.5833 19.3334 14.4895 17.1459 14.8645 16.2084C15.1145 15.6146 15.5833 15.1459 16.2083 14.8959C17.1145 14.5209 19.302 14.6146 20.3333 14.6146C21.3333 14.6146 23.5208 14.5209 24.4583 14.8959C25.052 15.1146 25.5208 15.6146 25.7708 16.2084C26.1458 17.1459 26.052 19.3334 26.052 20.3334C26.052 21.3646 26.1458 23.5521 25.7708 24.4584Z" fill="#5A7184"/>
</svg>
