<svg xmlns="http://www.w3.org/2000/svg" width="13.791" height="13.776" viewBox="0 0 13.791 13.776">
  <g id="Group_85" data-name="Group 85" transform="translate(0 0)">
    <path id="Path_134" data-name="Path 134" d="M18.164,19.627a.592.592,0,0,0-.627.627v2.507H6.254V19.627A.592.592,0,0,0,5.627,19,.592.592,0,0,0,5,19.627v3.761a.592.592,0,0,0,.627.627H18.164a.592.592,0,0,0,.627-.627V20.254A.592.592,0,0,0,18.164,19.627Z" transform="translate(-5 -10.239)" fill="#2e5ea9"/>
    <path id="Path_135" data-name="Path 135" d="M11.627,8.771a.569.569,0,0,0,.439-.188l1.442-1.442V11.9a.627.627,0,1,0,1.254,0V7.141L16.2,8.582a.606.606,0,0,0,.878,0,.606.606,0,0,0,0-.878L14.573,5.2c-.063-.063-.125-.125-.188-.125a.687.687,0,0,0-.5,0c-.063.063-.125.063-.188.125L11.188,7.7a.606.606,0,0,0,0,.878A.569.569,0,0,0,11.627,8.771Z" transform="translate(-7.239 -5.025)" fill="#2e5ea9"/>
  </g>
</svg>
