<svg xmlns="http://www.w3.org/2000/svg" width="262.746" height="59" viewBox="0 0 262.746 59">
  <g id="Group_110" data-name="Group 110" transform="translate(-1294 -1737)">
    <rect id="Rectangle_20" data-name="Rectangle 20" width="262.746" height="59" rx="29.5" transform="translate(1294 1737)" fill="#31a1d3"/>
    <g id="Group_124" data-name="Group 124">
      <text id="Download" transform="translate(1398 1742)" fill="#f7fcff" font-size="25" font-family="HKGrotesk-SemiBold, HK Grotesk" font-weight="600"><tspan x="0" y="23">Download</tspan></text>
      <text id="JPG" transform="translate(1441 1767)" fill="#f7fcff" font-size="15" font-family="HKGrotesk-Light, HK Grotesk" font-weight="300"><tspan x="0" y="14">JPG</tspan></text>
    </g>
    <g id="Group_109" data-name="Group 109" transform="translate(1328.099 1753.163)">
      <path id="Path_134" data-name="Path 134" d="M30.53,20.216a1.149,1.149,0,0,0-1.216,1.216v4.863H7.431V20.216A1.149,1.149,0,0,0,6.216,19,1.149,1.149,0,0,0,5,20.216V27.51a1.149,1.149,0,0,0,1.216,1.216H30.53a1.149,1.149,0,0,0,1.216-1.216V21.431A1.149,1.149,0,0,0,30.53,20.216Z" transform="translate(-5 -2.01)" fill="#f7f7f7"/>
      <path id="Path_135" data-name="Path 135" d="M1.216,7.264A1.1,1.1,0,0,0,2.067,6.9l2.8-2.8v9.24a1.149,1.149,0,0,0,1.216,1.216,1.149,1.149,0,0,0,1.216-1.216V4.1l2.8,2.8a1.313,1.313,0,0,0,.851.365,1.313,1.313,0,0,0,.851-.365,1.175,1.175,0,0,0,0-1.7L6.93.334C6.808.213,6.686.091,6.565.091a1.332,1.332,0,0,0-.973,0c-.122.122-.243.122-.365.243L.365,5.2a1.175,1.175,0,0,0,0,1.7A1.1,1.1,0,0,0,1.216,7.264Z" transform="translate(19.452 14.558) rotate(180)" fill="#f7f7f7"/>
    </g>
  </g>
</svg>
