<svg width="212" height="54" viewBox="0 0 212 54" fill="none" xmlns="http://www.w3.org/2000/svg">
<rect width="212" height="54" rx="27" fill="white"/>
<g clip-path="url(#clip0)">
<path d="M30.5742 33H27.8496V22.418H24.3604V20.1504H34.0635V22.418H30.5742V33ZM41.3145 22.9893C41.6777 22.9893 41.9795 23.0156 42.2197 23.0684L42.0176 25.582C41.8008 25.5234 41.5371 25.4941 41.2266 25.4941C40.3711 25.4941 39.7031 25.7139 39.2227 26.1533C38.748 26.5928 38.5107 27.208 38.5107 27.999V33H35.8301V23.1738H37.8604L38.2559 24.8262H38.3877C38.6924 24.2754 39.1025 23.833 39.6182 23.499C40.1396 23.1592 40.7051 22.9893 41.3145 22.9893ZM42.5977 23.1738H45.5332L47.3877 28.7021C47.5459 29.1826 47.6543 29.751 47.7129 30.4072H47.7656C47.8301 29.8037 47.9561 29.2354 48.1436 28.7021L49.9629 23.1738H52.8369L48.6797 34.2568C48.2988 35.2822 47.7539 36.0498 47.0449 36.5596C46.3418 37.0693 45.5186 37.3242 44.5752 37.3242C44.1123 37.3242 43.6582 37.2744 43.2129 37.1748V35.0479C43.5352 35.124 43.8867 35.1621 44.2676 35.1621C44.7422 35.1621 45.1553 35.0156 45.5068 34.7227C45.8643 34.4355 46.1426 33.999 46.3418 33.4131L46.5 32.9297L42.5977 23.1738ZM58.8135 20.6338C58.8135 19.7607 59.2998 19.3242 60.2725 19.3242C61.2451 19.3242 61.7314 19.7607 61.7314 20.6338C61.7314 21.0498 61.6084 21.375 61.3623 21.6094C61.1221 21.8379 60.7588 21.9521 60.2725 21.9521C59.2998 21.9521 58.8135 21.5127 58.8135 20.6338ZM61.6084 33H58.9277V23.1738H61.6084V33ZM68.5693 31.04C69.0381 31.04 69.6006 30.9375 70.2568 30.7324V32.7275C69.5889 33.0264 68.7686 33.1758 67.7959 33.1758C66.7236 33.1758 65.9414 32.9062 65.4492 32.3672C64.9629 31.8223 64.7197 31.0078 64.7197 29.9238V25.1865H63.4365V24.0527L64.9131 23.1562L65.6865 21.082H67.4004V23.1738H70.1514V25.1865H67.4004V29.9238C67.4004 30.3047 67.5059 30.5859 67.7168 30.7676C67.9336 30.9492 68.2178 31.04 68.5693 31.04ZM82.3594 25.1865H80.0391V33H77.3584V25.1865H75.8818V23.8945L77.3584 23.1738V22.4531C77.3584 21.334 77.6338 20.5166 78.1846 20.001C78.7354 19.4854 79.6172 19.2275 80.8301 19.2275C81.7559 19.2275 82.5791 19.3652 83.2998 19.6406L82.6143 21.6094C82.0752 21.4395 81.5771 21.3545 81.1201 21.3545C80.7393 21.3545 80.4639 21.4688 80.2939 21.6973C80.124 21.9199 80.0391 22.207 80.0391 22.5586V23.1738H82.3594V25.1865ZM86.042 28.0693C86.042 29.042 86.2002 29.7773 86.5166 30.2754C86.8389 30.7734 87.3604 31.0225 88.0811 31.0225C88.7959 31.0225 89.3086 30.7764 89.6191 30.2842C89.9355 29.7861 90.0938 29.0479 90.0938 28.0693C90.0938 27.0967 89.9355 26.3672 89.6191 25.8809C89.3027 25.3945 88.7842 25.1514 88.0635 25.1514C87.3486 25.1514 86.833 25.3945 86.5166 25.8809C86.2002 26.3613 86.042 27.0908 86.042 28.0693ZM92.8359 28.0693C92.8359 29.6689 92.4141 30.9199 91.5703 31.8223C90.7266 32.7246 89.5518 33.1758 88.0459 33.1758C87.1025 33.1758 86.2705 32.9707 85.5498 32.5605C84.8291 32.1445 84.2754 31.5498 83.8887 30.7764C83.502 30.0029 83.3086 29.1006 83.3086 28.0693C83.3086 26.4639 83.7275 25.2158 84.5654 24.3252C85.4033 23.4346 86.5811 22.9893 88.0986 22.9893C89.042 22.9893 89.874 23.1943 90.5947 23.6045C91.3154 24.0146 91.8691 24.6035 92.2559 25.3711C92.6426 26.1387 92.8359 27.0381 92.8359 28.0693ZM100.535 22.9893C100.898 22.9893 101.2 23.0156 101.44 23.0684L101.238 25.582C101.021 25.5234 100.758 25.4941 100.447 25.4941C99.5918 25.4941 98.9238 25.7139 98.4434 26.1533C97.9688 26.5928 97.7314 27.208 97.7314 27.999V33H95.0508V23.1738H97.0811L97.4766 24.8262H97.6084C97.9131 24.2754 98.3232 23.833 98.8389 23.499C99.3604 23.1592 99.9258 22.9893 100.535 22.9893ZM113.332 25.1865H111.012V33H108.331V25.1865H106.854V23.8945L108.331 23.1738V22.4531C108.331 21.334 108.606 20.5166 109.157 20.001C109.708 19.4854 110.59 19.2275 111.803 19.2275C112.729 19.2275 113.552 19.3652 114.272 19.6406L113.587 21.6094C113.048 21.4395 112.55 21.3545 112.093 21.3545C111.712 21.3545 111.437 21.4688 111.267 21.6973C111.097 21.9199 111.012 22.207 111.012 22.5586V23.1738H113.332V25.1865ZM120.363 22.9893C120.727 22.9893 121.028 23.0156 121.269 23.0684L121.066 25.582C120.85 25.5234 120.586 25.4941 120.275 25.4941C119.42 25.4941 118.752 25.7139 118.271 26.1533C117.797 26.5928 117.56 27.208 117.56 27.999V33H114.879V23.1738H116.909L117.305 24.8262H117.437C117.741 24.2754 118.151 23.833 118.667 23.499C119.188 23.1592 119.754 22.9893 120.363 22.9893ZM127.122 24.8965C126.554 24.8965 126.108 25.0781 125.786 25.4414C125.464 25.7988 125.279 26.3086 125.232 26.9707H128.994C128.982 26.3086 128.81 25.7988 128.476 25.4414C128.142 25.0781 127.69 24.8965 127.122 24.8965ZM127.5 33.1758C125.918 33.1758 124.682 32.7393 123.791 31.8662C122.9 30.9932 122.455 29.7568 122.455 28.1572C122.455 26.5107 122.865 25.2393 123.686 24.3428C124.512 23.4404 125.651 22.9893 127.104 22.9893C128.493 22.9893 129.574 23.3848 130.348 24.1758C131.121 24.9668 131.508 26.0596 131.508 27.4541V28.7549H125.171C125.2 29.5166 125.426 30.1113 125.848 30.5391C126.27 30.9668 126.861 31.1807 127.623 31.1807C128.215 31.1807 128.774 31.1191 129.302 30.9961C129.829 30.873 130.38 30.6768 130.954 30.4072V32.4814C130.485 32.7158 129.984 32.8887 129.451 33C128.918 33.1172 128.268 33.1758 127.5 33.1758ZM137.757 24.8965C137.188 24.8965 136.743 25.0781 136.421 25.4414C136.099 25.7988 135.914 26.3086 135.867 26.9707H139.629C139.617 26.3086 139.444 25.7988 139.11 25.4414C138.776 25.0781 138.325 24.8965 137.757 24.8965ZM138.135 33.1758C136.553 33.1758 135.316 32.7393 134.426 31.8662C133.535 30.9932 133.09 29.7568 133.09 28.1572C133.09 26.5107 133.5 25.2393 134.32 24.3428C135.146 23.4404 136.286 22.9893 137.739 22.9893C139.128 22.9893 140.209 23.3848 140.982 24.1758C141.756 24.9668 142.143 26.0596 142.143 27.4541V28.7549H135.806C135.835 29.5166 136.061 30.1113 136.482 30.5391C136.904 30.9668 137.496 31.1807 138.258 31.1807C138.85 31.1807 139.409 31.1191 139.937 30.9961C140.464 30.873 141.015 30.6768 141.589 30.4072V32.4814C141.12 32.7158 140.619 32.8887 140.086 33C139.553 33.1172 138.902 33.1758 138.135 33.1758Z" fill="#1565D8"/>
<path d="M180.57 22.582C180.297 22.8555 180.324 23.2656 180.57 23.5391L183.879 26.6562H176.031C175.648 26.6562 175.375 26.957 175.375 27.3125V28.1875C175.375 28.5703 175.648 28.8438 176.031 28.8438H183.879L180.57 31.9883C180.324 32.2617 180.324 32.6719 180.57 32.9453L181.172 33.5469C181.445 33.793 181.855 33.793 182.102 33.5469L187.434 28.2148C187.68 27.9688 187.68 27.5586 187.434 27.2852L182.102 21.9805C181.855 21.7344 181.445 21.7344 181.172 21.9805L180.57 22.582Z" fill="#1565D8"/>
</g>
<defs>
<clipPath id="clip0">
<rect width="164" height="24" fill="white" transform="translate(24 14)"/>
</clipPath>
</defs>
</svg>
