<svg width="186" height="44" viewBox="0 0 186 44" fill="none" xmlns="http://www.w3.org/2000/svg">
<rect width="186" height="44" rx="22" fill="white"/>
<path d="M35.4785 28H33.208V19.1816H30.3003V17.292H38.3862V19.1816H35.4785V28ZM44.4287 19.6577C44.7314 19.6577 44.9829 19.6797 45.1831 19.7236L45.0146 21.8184C44.834 21.7695 44.6143 21.7451 44.3555 21.7451C43.6426 21.7451 43.0859 21.9282 42.6855 22.2944C42.29 22.6606 42.0923 23.1733 42.0923 23.8325V28H39.8584V19.8115H41.5503L41.8799 21.1885H41.9897C42.2437 20.7295 42.5854 20.3608 43.0151 20.0825C43.4497 19.7993 43.9209 19.6577 44.4287 19.6577ZM45.498 19.8115H47.9443L49.4897 24.4185C49.6216 24.8188 49.7119 25.2925 49.7607 25.8394H49.8047C49.8584 25.3364 49.9634 24.8628 50.1196 24.4185L51.6357 19.8115H54.0308L50.5664 29.0474C50.249 29.9019 49.7949 30.5415 49.2041 30.9663C48.6182 31.3911 47.9321 31.6035 47.146 31.6035C46.7603 31.6035 46.3818 31.562 46.0107 31.479V29.7065C46.2793 29.77 46.5723 29.8018 46.8896 29.8018C47.2852 29.8018 47.6294 29.6797 47.9224 29.4355C48.2202 29.1963 48.4521 28.8325 48.6182 28.3442L48.75 27.9414L45.498 19.8115ZM59.0112 17.6948C59.0112 16.9673 59.4165 16.6035 60.2271 16.6035C61.0376 16.6035 61.4429 16.9673 61.4429 17.6948C61.4429 18.0415 61.3403 18.3125 61.1353 18.5078C60.9351 18.6982 60.6323 18.7935 60.2271 18.7935C59.4165 18.7935 59.0112 18.4272 59.0112 17.6948ZM61.3403 28H59.1064V19.8115H61.3403V28ZM67.1411 26.3667C67.5317 26.3667 68.0005 26.2812 68.5474 26.1104V27.7729C67.9907 28.022 67.3071 28.1465 66.4966 28.1465C65.603 28.1465 64.9512 27.9219 64.541 27.4727C64.1357 27.0186 63.9331 26.3398 63.9331 25.4365V21.4888H62.8638V20.5439L64.0942 19.7969L64.7388 18.0684H66.167V19.8115H68.4595V21.4888H66.167V25.4365C66.167 25.7539 66.2549 25.9883 66.4307 26.1396C66.6113 26.291 66.8481 26.3667 67.1411 26.3667ZM75.8862 23.8911C75.8862 24.7017 76.0181 25.3145 76.2817 25.7295C76.5503 26.1445 76.9849 26.3521 77.5854 26.3521C78.1812 26.3521 78.6084 26.147 78.8672 25.7368C79.1309 25.3218 79.2627 24.7065 79.2627 23.8911C79.2627 23.0806 79.1309 22.4727 78.8672 22.0674C78.6035 21.6621 78.1714 21.4595 77.5708 21.4595C76.9751 21.4595 76.5454 21.6621 76.2817 22.0674C76.0181 22.4678 75.8862 23.0757 75.8862 23.8911ZM81.5479 23.8911C81.5479 25.2241 81.1963 26.2666 80.4932 27.0186C79.79 27.7705 78.811 28.1465 77.5562 28.1465C76.77 28.1465 76.0767 27.9756 75.4761 27.6338C74.8755 27.2871 74.4141 26.7915 74.0918 26.147C73.7695 25.5024 73.6084 24.7505 73.6084 23.8911C73.6084 22.5532 73.9575 21.5132 74.6558 20.771C75.354 20.0288 76.3354 19.6577 77.6001 19.6577C78.3862 19.6577 79.0796 19.8286 79.6802 20.1704C80.2808 20.5122 80.7422 21.0029 81.0645 21.6426C81.3867 22.2822 81.5479 23.0317 81.5479 23.8911ZM89.1943 28L88.894 26.9526H88.7769C88.5376 27.3335 88.1982 27.6289 87.7588 27.8389C87.3193 28.0439 86.8188 28.1465 86.2573 28.1465C85.2954 28.1465 84.5703 27.8901 84.082 27.3774C83.5938 26.8599 83.3496 26.1177 83.3496 25.1509V19.8115H85.5835V24.5942C85.5835 25.1851 85.6885 25.6294 85.8984 25.9272C86.1084 26.2202 86.4429 26.3667 86.9019 26.3667C87.5269 26.3667 87.9785 26.1592 88.2568 25.7441C88.5352 25.3242 88.6743 24.6309 88.6743 23.6641V19.8115H90.9082V28H89.1943ZM96.7017 26.3667C97.0923 26.3667 97.561 26.2812 98.1079 26.1104V27.7729C97.5513 28.022 96.8677 28.1465 96.0571 28.1465C95.1636 28.1465 94.5117 27.9219 94.1016 27.4727C93.6963 27.0186 93.4937 26.3398 93.4937 25.4365V21.4888H92.4243V20.5439L93.6548 19.7969L94.2993 18.0684H95.7275V19.8115H98.02V21.4888H95.7275V25.4365C95.7275 25.7539 95.8154 25.9883 95.9912 26.1396C96.1719 26.291 96.4087 26.3667 96.7017 26.3667ZM108.193 21.4888H106.26V28H104.026V21.4888H102.795V20.4121L104.026 19.8115V19.2109C104.026 18.2783 104.255 17.5972 104.714 17.1675C105.173 16.7378 105.908 16.5229 106.919 16.5229C107.69 16.5229 108.376 16.6377 108.977 16.8672L108.406 18.5078C107.957 18.3662 107.542 18.2954 107.161 18.2954C106.843 18.2954 106.614 18.3906 106.472 18.5811C106.331 18.7666 106.26 19.0059 106.26 19.2988V19.8115H108.193V21.4888ZM114.053 19.6577C114.355 19.6577 114.607 19.6797 114.807 19.7236L114.639 21.8184C114.458 21.7695 114.238 21.7451 113.979 21.7451C113.267 21.7451 112.71 21.9282 112.31 22.2944C111.914 22.6606 111.716 23.1733 111.716 23.8325V28H109.482V19.8115H111.174L111.504 21.1885H111.614C111.868 20.7295 112.209 20.3608 112.639 20.0825C113.074 19.7993 113.545 19.6577 114.053 19.6577ZM119.685 21.2471C119.211 21.2471 118.84 21.3984 118.572 21.7012C118.303 21.999 118.149 22.4238 118.11 22.9756H121.245C121.235 22.4238 121.091 21.999 120.813 21.7012C120.535 21.3984 120.159 21.2471 119.685 21.2471ZM120 28.1465C118.682 28.1465 117.651 27.7827 116.909 27.0552C116.167 26.3276 115.796 25.2974 115.796 23.9644C115.796 22.5923 116.138 21.5327 116.821 20.7856C117.51 20.0337 118.459 19.6577 119.67 19.6577C120.828 19.6577 121.729 19.9873 122.373 20.6465C123.018 21.3057 123.34 22.2163 123.34 23.3784V24.4624H118.059C118.083 25.0972 118.271 25.5928 118.623 25.9492C118.975 26.3057 119.468 26.4839 120.103 26.4839C120.596 26.4839 121.062 26.4326 121.501 26.3301C121.941 26.2275 122.4 26.064 122.878 25.8394V27.5679C122.488 27.7632 122.07 27.9072 121.626 28C121.182 28.0977 120.64 28.1465 120 28.1465ZM128.547 21.2471C128.074 21.2471 127.703 21.3984 127.434 21.7012C127.166 21.999 127.012 22.4238 126.973 22.9756H130.107C130.098 22.4238 129.954 21.999 129.675 21.7012C129.397 21.3984 129.021 21.2471 128.547 21.2471ZM128.862 28.1465C127.544 28.1465 126.514 27.7827 125.771 27.0552C125.029 26.3276 124.658 25.2974 124.658 23.9644C124.658 22.5923 125 21.5327 125.684 20.7856C126.372 20.0337 127.322 19.6577 128.533 19.6577C129.69 19.6577 130.591 19.9873 131.235 20.6465C131.88 21.3057 132.202 22.2163 132.202 23.3784V24.4624H126.921C126.946 25.0972 127.134 25.5928 127.485 25.9492C127.837 26.3057 128.33 26.4839 128.965 26.4839C129.458 26.4839 129.924 26.4326 130.364 26.3301C130.803 26.2275 131.262 26.064 131.741 25.8394V27.5679C131.35 27.7632 130.933 27.9072 130.488 28C130.044 28.0977 129.502 28.1465 128.862 28.1465Z" fill="#1565D8"/>
<path d="M148.57 16.582C148.297 16.8555 148.324 17.2656 148.57 17.5391L151.879 20.6562H144.031C143.648 20.6562 143.375 20.957 143.375 21.3125V22.1875C143.375 22.5703 143.648 22.8438 144.031 22.8438H151.879L148.57 25.9883C148.324 26.2617 148.324 26.6719 148.57 26.9453L149.172 27.5469C149.445 27.793 149.855 27.793 150.102 27.5469L155.434 22.2148C155.68 21.9688 155.68 21.5586 155.434 21.2852L150.102 15.9805C149.855 15.7344 149.445 15.7344 149.172 15.9805L148.57 16.582Z" fill="#1565D8"/>
</svg>
