<svg xmlns="http://www.w3.org/2000/svg" width="146" height="44" viewBox="0 0 146 44">
  <g id="Group_117" data-name="Group 117" transform="translate(0.379 0)">
    <g id="Path_146" data-name="Path 146" transform="translate(-0.379 0)" fill="none">
      <path d="M22,0H124a22,22,0,0,1,0,44H22A22,22,0,0,1,22,0Z" stroke="none"/>
      <path d="M 22 2 C 19.29914093017578 2 16.68011474609375 2.528518676757813 14.2156982421875 3.570880889892578 C 11.83436584472656 4.578098297119141 9.695266723632813 6.020458221435547 7.857864379882813 7.857860565185547 C 6.02044677734375 9.695278167724609 4.578094482421875 11.83435821533203 3.570877075195313 14.21571922302246 C 2.528518676757813 16.68012046813965 2 19.29914093017578 2 22 C 2 24.70085906982422 2.528518676757813 27.31987953186035 3.570877075195313 29.78427886962891 C 4.578094482421875 32.16564178466797 6.02044677734375 34.30471801757813 7.857864379882813 36.14213943481445 C 9.695266723632813 37.97953796386719 11.83436584472656 39.42189788818359 14.2156982421875 40.42911911010742 C 16.68011474609375 41.47148132324219 19.29914093017578 42 22 42 L 124 42 C 126.7008590698242 42 129.3198852539063 41.47148132324219 131.7842864990234 40.42911911010742 C 134.1656341552734 39.42189788818359 136.3047180175781 37.97953796386719 138.1421356201172 36.14213943481445 C 139.9795379638672 34.30471801757813 141.4219055175781 32.16564178466797 142.4291229248047 29.78427886962891 C 143.4714813232422 27.31987953186035 144 24.70085906982422 144 22 C 144 19.29914093017578 143.4714813232422 16.68012046813965 142.4291229248047 14.21571922302246 C 141.4219055175781 11.83435821533203 139.9795379638672 9.695278167724609 138.1421356201172 7.857860565185547 C 136.3047180175781 6.020458221435547 134.1656341552734 4.578098297119141 131.7842864990234 3.570880889892578 C 129.3198852539063 2.528518676757813 126.7008590698242 2 124 2 L 22 2 M 22 0 L 124 0 C 136.1502532958984 0 146 9.849739074707031 146 22 C 146 34.15026092529297 136.1502532958984 44 124 44 L 22 44 C 9.849716186523438 44 0 34.15026092529297 0 22 C 0 9.849739074707031 9.849716186523438 0 22 0 Z" stroke="none" fill="#1565d8"/>
    </g>
    <text id="Vector" transform="translate(58.621 3)" fill="#1565d8" font-size="20" font-family="HKGrotesk-SemiBold, HK Grotesk" font-weight="600"><tspan x="0" y="18">Vector</tspan></text>
    <text id="SVG_EPS" data-name="SVG/EPS" transform="translate(67.621 24)" fill="#1565d8" font-size="10" font-family="HKGrotesk-Light, HK Grotesk" font-weight="300"><tspan x="0" y="9">SVG/EPS</tspan></text>
    <g id="Group_109" data-name="Group 109" transform="translate(25.495 12.183)">
      <path id="Path_134" data-name="Path 134" d="M24.243,19.916a.866.866,0,0,0-.916.916V24.5H6.833V19.916A.866.866,0,0,0,5.916,19,.866.866,0,0,0,5,19.916v5.5a.866.866,0,0,0,.916.916H24.243a.866.866,0,0,0,.916-.916V20.833A.866.866,0,0,0,24.243,19.916Z" transform="translate(-5 -6.194)" fill="#1565d8"/>
      <path id="Path_135" data-name="Path 135" d="M.916,5.475A.832.832,0,0,0,1.558,5.2L3.665,3.093v6.964a.866.866,0,0,0,.916.916.866.866,0,0,0,.916-.916V3.093L7.606,5.2a.99.99,0,0,0,.641.275A.99.99,0,0,0,8.889,5.2a.886.886,0,0,0,0-1.283L5.223.252C5.132.16,5.04.069,4.948.069a1,1,0,0,0-.733,0C4.124.16,4.032.16,3.94.252L.275,3.917a.886.886,0,0,0,0,1.283A.832.832,0,0,0,.916,5.475Z" transform="translate(14.662 10.973) rotate(180)" fill="#1565d8"/>
    </g>
  </g>
</svg>
