<svg width="193" height="44" viewBox="0 0 193 44" fill="none" xmlns="http://www.w3.org/2000/svg">
<rect width="193" height="44" rx="22" fill="white"/>
<path d="M37.4561 17.292H39.7485L36.1084 28H33.6328L30 17.292H32.2925L34.3066 23.6641C34.4189 24.04 34.5337 24.4795 34.6509 24.9824C34.7729 25.4805 34.8486 25.8271 34.8779 26.0225C34.9316 25.5732 35.1147 24.7871 35.4272 23.6641L37.4561 17.292ZM40.8325 17.6948C40.8325 16.9673 41.2378 16.6035 42.0483 16.6035C42.8589 16.6035 43.2642 16.9673 43.2642 17.6948C43.2642 18.0415 43.1616 18.3125 42.9565 18.5078C42.7563 18.6982 42.4536 18.7935 42.0483 18.7935C41.2378 18.7935 40.8325 18.4272 40.8325 17.6948ZM43.1616 28H40.9277V19.8115H43.1616V28ZM51.2256 25.5684C51.2256 26.4082 50.9326 27.0479 50.3467 27.4873C49.7656 27.9268 48.894 28.1465 47.7319 28.1465C47.1362 28.1465 46.6284 28.105 46.2085 28.022C45.7886 27.9438 45.3955 27.8267 45.0293 27.6704V25.8247C45.4443 26.02 45.9106 26.1836 46.4282 26.3154C46.9507 26.4473 47.4097 26.5132 47.8052 26.5132C48.6157 26.5132 49.021 26.2788 49.021 25.8101C49.021 25.6343 48.9673 25.4927 48.8599 25.3853C48.7524 25.2729 48.5669 25.1484 48.3032 25.0117C48.0396 24.8701 47.688 24.7065 47.2485 24.521C46.6187 24.2573 46.1548 24.0132 45.8569 23.7886C45.564 23.564 45.3491 23.3076 45.2124 23.0195C45.0806 22.7266 45.0146 22.3677 45.0146 21.9429C45.0146 21.2153 45.2954 20.6538 45.8569 20.2583C46.4233 19.8579 47.2241 19.6577 48.2593 19.6577C49.2456 19.6577 50.2051 19.8726 51.1377 20.3022L50.4639 21.9136C50.0537 21.7378 49.6704 21.5938 49.314 21.4814C48.9575 21.3691 48.5938 21.313 48.2227 21.313C47.5635 21.313 47.2339 21.4912 47.2339 21.8477C47.2339 22.0479 47.3389 22.2212 47.5488 22.3677C47.7637 22.5142 48.23 22.7314 48.9478 23.0195C49.5874 23.2783 50.0562 23.52 50.354 23.7446C50.6519 23.9692 50.8716 24.228 51.0132 24.521C51.1548 24.814 51.2256 25.1631 51.2256 25.5684ZM52.8735 17.6948C52.8735 16.9673 53.2788 16.6035 54.0894 16.6035C54.8999 16.6035 55.3052 16.9673 55.3052 17.6948C55.3052 18.0415 55.2026 18.3125 54.9976 18.5078C54.7974 18.6982 54.4946 18.7935 54.0894 18.7935C53.2788 18.7935 52.8735 18.4272 52.8735 17.6948ZM55.2026 28H52.9688V19.8115H55.2026V28ZM61.0034 26.3667C61.394 26.3667 61.8628 26.2812 62.4097 26.1104V27.7729C61.853 28.022 61.1694 28.1465 60.3589 28.1465C59.4653 28.1465 58.8135 27.9219 58.4033 27.4727C57.998 27.0186 57.7954 26.3398 57.7954 25.4365V21.4888H56.7261V20.5439L57.9565 19.7969L58.6011 18.0684H60.0293V19.8115H62.3218V21.4888H60.0293V25.4365C60.0293 25.7539 60.1172 25.9883 60.293 26.1396C60.4736 26.291 60.7104 26.3667 61.0034 26.3667ZM74.6997 28L73.9233 25.4512H70.0195L69.2432 28H66.7969L70.5762 17.248H73.3521L77.146 28H74.6997ZM73.3813 23.5469C72.6636 21.2373 72.2583 19.9312 72.1655 19.6284C72.0776 19.3257 72.0142 19.0864 71.9751 18.9106C71.814 19.5356 71.3525 21.0811 70.5908 23.5469H73.3813ZM82.8223 28.1465C81.8604 28.1465 81.106 27.7974 80.5591 27.0991H80.4419C80.52 27.7827 80.5591 28.1782 80.5591 28.2856V31.6035H78.3252V19.8115H80.1416L80.4565 20.8735H80.5591C81.0815 20.063 81.8555 19.6577 82.8809 19.6577C83.8477 19.6577 84.6045 20.0312 85.1514 20.7783C85.6982 21.5254 85.9717 22.563 85.9717 23.8911C85.9717 24.7651 85.8423 25.5244 85.5835 26.1689C85.3296 26.8135 84.9658 27.3042 84.4922 27.6411C84.0186 27.978 83.4619 28.1465 82.8223 28.1465ZM82.1631 21.4448C81.6113 21.4448 81.2085 21.6157 80.9546 21.9575C80.7007 22.2944 80.5688 22.8535 80.5591 23.6348V23.8765C80.5591 24.7554 80.6885 25.3853 80.9473 25.7661C81.2109 26.147 81.626 26.3374 82.1924 26.3374C83.1934 26.3374 83.6938 25.5122 83.6938 23.8618C83.6938 23.0562 83.5693 22.4531 83.3203 22.0527C83.0762 21.6475 82.6904 21.4448 82.1631 21.4448ZM92.3145 28.1465C91.3525 28.1465 90.5981 27.7974 90.0513 27.0991H89.9341C90.0122 27.7827 90.0513 28.1782 90.0513 28.2856V31.6035H87.8174V19.8115H89.6338L89.9487 20.8735H90.0513C90.5737 20.063 91.3477 19.6577 92.373 19.6577C93.3398 19.6577 94.0967 20.0312 94.6436 20.7783C95.1904 21.5254 95.4639 22.563 95.4639 23.8911C95.4639 24.7651 95.3345 25.5244 95.0757 26.1689C94.8218 26.8135 94.458 27.3042 93.9844 27.6411C93.5107 27.978 92.9541 28.1465 92.3145 28.1465ZM91.6553 21.4448C91.1035 21.4448 90.7007 21.6157 90.4468 21.9575C90.1929 22.2944 90.061 22.8535 90.0513 23.6348V23.8765C90.0513 24.7554 90.1807 25.3853 90.4395 25.7661C90.7031 26.147 91.1182 26.3374 91.6846 26.3374C92.6855 26.3374 93.186 25.5122 93.186 23.8618C93.186 23.0562 93.0615 22.4531 92.8125 22.0527C92.5684 21.6475 92.1826 21.4448 91.6553 21.4448ZM107.703 25.0264C107.703 25.9932 107.354 26.7549 106.655 27.3115C105.962 27.8682 104.995 28.1465 103.755 28.1465C102.612 28.1465 101.602 27.9316 100.723 27.502V25.3926C101.445 25.7148 102.056 25.9419 102.554 26.0737C103.057 26.2056 103.516 26.2715 103.931 26.2715C104.429 26.2715 104.81 26.1763 105.073 25.9858C105.342 25.7954 105.476 25.5122 105.476 25.1362C105.476 24.9263 105.417 24.7407 105.3 24.5796C105.183 24.4136 105.01 24.2549 104.78 24.1035C104.556 23.9521 104.094 23.7104 103.396 23.3784C102.742 23.0708 102.251 22.7754 101.924 22.4922C101.597 22.209 101.335 21.8794 101.14 21.5034C100.945 21.1274 100.847 20.688 100.847 20.1851C100.847 19.2378 101.167 18.4932 101.807 17.9512C102.451 17.4092 103.34 17.1382 104.473 17.1382C105.029 17.1382 105.559 17.2041 106.062 17.3359C106.57 17.4678 107.1 17.6533 107.651 17.8926L106.919 19.6577C106.348 19.4233 105.874 19.2598 105.498 19.167C105.127 19.0742 104.761 19.0278 104.399 19.0278C103.97 19.0278 103.64 19.1279 103.411 19.3281C103.181 19.5283 103.066 19.7896 103.066 20.1118C103.066 20.312 103.113 20.4878 103.206 20.6392C103.298 20.7856 103.445 20.9297 103.645 21.0713C103.85 21.208 104.331 21.457 105.088 21.8184C106.089 22.2969 106.775 22.7778 107.146 23.2612C107.517 23.7397 107.703 24.3281 107.703 25.0264ZM112.917 26.3667C113.308 26.3667 113.777 26.2812 114.324 26.1104V27.7729C113.767 28.022 113.083 28.1465 112.273 28.1465C111.379 28.1465 110.728 27.9219 110.317 27.4727C109.912 27.0186 109.709 26.3398 109.709 25.4365V21.4888H108.64V20.5439L109.871 19.7969L110.515 18.0684H111.943V19.8115H114.236V21.4888H111.943V25.4365C111.943 25.7539 112.031 25.9883 112.207 26.1396C112.388 26.291 112.625 26.3667 112.917 26.3667ZM117.766 23.8911C117.766 24.7017 117.898 25.3145 118.162 25.7295C118.43 26.1445 118.865 26.3521 119.465 26.3521C120.061 26.3521 120.488 26.147 120.747 25.7368C121.011 25.3218 121.143 24.7065 121.143 23.8911C121.143 23.0806 121.011 22.4727 120.747 22.0674C120.483 21.6621 120.051 21.4595 119.451 21.4595C118.855 21.4595 118.425 21.6621 118.162 22.0674C117.898 22.4678 117.766 23.0757 117.766 23.8911ZM123.428 23.8911C123.428 25.2241 123.076 26.2666 122.373 27.0186C121.67 27.7705 120.691 28.1465 119.436 28.1465C118.65 28.1465 117.957 27.9756 117.356 27.6338C116.755 27.2871 116.294 26.7915 115.972 26.147C115.649 25.5024 115.488 24.7505 115.488 23.8911C115.488 22.5532 115.837 21.5132 116.536 20.771C117.234 20.0288 118.215 19.6577 119.48 19.6577C120.266 19.6577 120.959 19.8286 121.56 20.1704C122.161 20.5122 122.622 21.0029 122.944 21.6426C123.267 22.2822 123.428 23.0317 123.428 23.8911ZM129.844 19.6577C130.146 19.6577 130.398 19.6797 130.598 19.7236L130.43 21.8184C130.249 21.7695 130.029 21.7451 129.771 21.7451C129.058 21.7451 128.501 21.9282 128.101 22.2944C127.705 22.6606 127.507 23.1733 127.507 23.8325V28H125.273V19.8115H126.965L127.295 21.1885H127.405C127.659 20.7295 128 20.3608 128.43 20.0825C128.865 19.7993 129.336 19.6577 129.844 19.6577ZM135.476 21.2471C135.002 21.2471 134.631 21.3984 134.363 21.7012C134.094 21.999 133.94 22.4238 133.901 22.9756H137.036C137.026 22.4238 136.882 21.999 136.604 21.7012C136.326 21.3984 135.95 21.2471 135.476 21.2471ZM135.791 28.1465C134.473 28.1465 133.442 27.7827 132.7 27.0552C131.958 26.3276 131.587 25.2974 131.587 23.9644C131.587 22.5923 131.929 21.5327 132.612 20.7856C133.301 20.0337 134.25 19.6577 135.461 19.6577C136.619 19.6577 137.52 19.9873 138.164 20.6465C138.809 21.3057 139.131 22.2163 139.131 23.3784V24.4624H133.85C133.875 25.0972 134.062 25.5928 134.414 25.9492C134.766 26.3057 135.259 26.4839 135.894 26.4839C136.387 26.4839 136.853 26.4326 137.292 26.3301C137.732 26.2275 138.191 26.064 138.669 25.8394V27.5679C138.279 27.7632 137.861 27.9072 137.417 28C136.973 28.0977 136.431 28.1465 135.791 28.1465Z" fill="#1565D8"/>
<path d="M155.57 16.582C155.297 16.8555 155.324 17.2656 155.57 17.5391L158.879 20.6562H151.031C150.648 20.6562 150.375 20.957 150.375 21.3125V22.1875C150.375 22.5703 150.648 22.8438 151.031 22.8438H158.879L155.57 25.9883C155.324 26.2617 155.324 26.6719 155.57 26.9453L156.172 27.5469C156.445 27.793 156.855 27.793 157.102 27.5469L162.434 22.2148C162.68 21.9688 162.68 21.5586 162.434 21.2852L157.102 15.9805C156.855 15.7344 156.445 15.7344 156.172 15.9805L155.57 16.582Z" fill="#1565D8"/>
</svg>
