<svg width="160" height="48" viewBox="0 0 160 48" fill="none" xmlns="http://www.w3.org/2000/svg">
<rect width="160" height="48" rx="24" fill="#1565D8"/>
<path d="M40.957 19.271L36.292 31H34.9307L30.249 19.271H32.2246L35.6196 28.1362L38.998 19.271H40.957ZM42.4678 19.271H44.2607V21.0806H42.4678V19.271ZM42.5093 22.7075H44.2192V31H42.5093V22.7075ZM49.3076 31.1577C48.7542 31.1577 48.2396 31.0581 47.7637 30.8589C47.2933 30.6541 46.8921 30.3802 46.5601 30.0371C46.2336 29.6885 46.0011 29.3011 45.8628 28.875L47.2407 28.269C47.3901 28.6785 47.6253 29.0244 47.9463 29.3066C48.2673 29.5833 48.6934 29.7217 49.2246 29.7217C49.5566 29.7217 49.8361 29.6663 50.063 29.5557C50.2954 29.445 50.4697 29.3011 50.5859 29.124C50.7021 28.9469 50.7603 28.7588 50.7603 28.5596C50.7603 28.3327 50.6855 28.1501 50.5361 28.0117C50.3867 27.8678 50.1986 27.7544 49.9717 27.6714C49.7448 27.5884 49.4294 27.4943 49.0254 27.3892C48.4665 27.2453 48.0099 27.1014 47.6558 26.9575C47.3071 26.8081 47.0055 26.5812 46.751 26.2769C46.502 25.967 46.3774 25.5519 46.3774 25.0317C46.3774 24.5005 46.513 24.0495 46.7842 23.6787C47.0553 23.3024 47.4178 23.0202 47.8716 22.832C48.3254 22.6439 48.8262 22.5498 49.374 22.5498C50.0602 22.5498 50.6662 22.7048 51.1919 23.0146C51.7176 23.3245 52.1354 23.7617 52.4453 24.3262L51.1172 25.0483C50.7021 24.2902 50.1017 23.9111 49.3159 23.9111C48.923 23.9111 48.6076 23.9969 48.3696 24.1685C48.1372 24.3345 48.021 24.5475 48.021 24.8076C48.021 25.0013 48.0902 25.1646 48.2285 25.2974C48.3724 25.4246 48.5522 25.5298 48.7681 25.6128C48.9839 25.6903 49.2799 25.7816 49.6562 25.8867C50.2373 26.0472 50.7132 26.2104 51.084 26.3765C51.4548 26.5369 51.7729 26.786 52.0386 27.1235C52.3097 27.4611 52.4453 27.9121 52.4453 28.4766C52.4453 29.0632 52.2987 29.5584 52.0054 29.9624C51.7121 30.3608 51.3275 30.6597 50.8516 30.8589C50.3757 31.0581 49.861 31.1577 49.3076 31.1577ZM54.3877 19.271H56.1807V21.0806H54.3877V19.271ZM54.4292 22.7075H56.1392V31H54.4292V22.7075ZM61.5347 31.1577C60.7544 31.1577 60.1457 30.9391 59.7085 30.502C59.2769 30.0648 59.061 29.4616 59.061 28.6924V24.1519H57.6997V22.7075H59.0859V20.5327L60.771 19.3042V22.7075H62.9292V24.1519H60.771V28.4019C60.771 28.8446 60.8623 29.1628 61.0449 29.3564C61.2275 29.5446 61.4904 29.6387 61.8335 29.6387C62.1655 29.6387 62.528 29.5501 62.9209 29.373L62.9292 30.9253C62.7632 30.9862 62.5529 31.0387 62.2983 31.083C62.0438 31.1328 61.7892 31.1577 61.5347 31.1577ZM68.1089 19.271H69.9683L72.583 28.3936L75.3306 19.9351H76.7334L79.481 28.3936L82.104 19.271H83.9551L80.4854 31H78.7422L76.0361 22.749L73.3218 31H71.5786L68.1089 19.271ZM88.3545 31.1577C87.4746 31.1577 86.7275 30.9668 86.1133 30.585C85.499 30.1976 85.0369 29.6802 84.7271 29.0327C84.4172 28.3853 84.2622 27.6714 84.2622 26.8911C84.2622 26.1219 84.4089 25.408 84.7021 24.7495C85.001 24.0854 85.4465 23.5542 86.0386 23.1558C86.6362 22.7518 87.3612 22.5498 88.2134 22.5498C89.1043 22.5498 89.8293 22.7546 90.3882 23.1641C90.9526 23.568 91.3566 24.0799 91.6001 24.6997C91.8491 25.3195 91.9736 25.9587 91.9736 26.6172C91.9736 26.7721 91.9653 26.9243 91.9487 27.0737C91.9377 27.2231 91.9238 27.3283 91.9072 27.3892H86.0718C86.1493 28.0864 86.3761 28.6287 86.7524 29.0161C87.1343 29.4035 87.6711 29.5972 88.3628 29.5972C88.7889 29.5972 89.1735 29.5252 89.5166 29.3813C89.8652 29.2375 90.1945 28.9967 90.5044 28.6592L91.6831 29.6968C91.2238 30.1948 90.723 30.5628 90.1807 30.8008C89.6439 31.0387 89.0352 31.1577 88.3545 31.1577ZM90.2803 26.144C90.2913 25.9614 90.2747 25.7871 90.2305 25.6211C90.1419 25.1341 89.9206 24.7412 89.5664 24.4424C89.2122 24.1436 88.7557 23.9941 88.1968 23.9941C87.577 23.9941 87.09 24.1878 86.7358 24.5752C86.3872 24.9626 86.1659 25.4855 86.0718 26.144H90.2803ZM98.2241 31.1577C97.6984 31.1577 97.2059 31.0443 96.7466 30.8174C96.2928 30.5905 95.9303 30.2612 95.6592 29.8296V31H93.8911V19.271H95.6592V23.8696C95.9303 23.438 96.29 23.1115 96.7383 22.8901C97.1865 22.6632 97.6735 22.5498 98.1992 22.5498C98.9408 22.5498 99.5799 22.7435 100.117 23.1309C100.659 23.5127 101.069 24.0329 101.345 24.6914C101.627 25.3444 101.769 26.0638 101.769 26.8496C101.769 27.6354 101.627 28.3576 101.345 29.0161C101.069 29.6691 100.662 30.1893 100.125 30.5767C99.5882 30.964 98.9546 31.1577 98.2241 31.1577ZM97.8008 29.5723C98.2878 29.5723 98.6973 29.4561 99.0293 29.2236C99.3669 28.9857 99.6187 28.6619 99.7847 28.2524C99.9507 27.8429 100.034 27.3753 100.034 26.8496C100.034 26.3294 99.9507 25.8618 99.7847 25.4468C99.6187 25.0317 99.3669 24.7052 99.0293 24.4673C98.6973 24.2293 98.2878 24.1104 97.8008 24.1104C97.3138 24.1104 96.896 24.2293 96.5474 24.4673C96.2043 24.7052 95.9442 25.0317 95.7671 25.4468C95.59 25.8618 95.5015 26.3294 95.5015 26.8496C95.5015 27.3753 95.59 27.8429 95.7671 28.2524C95.9442 28.6619 96.2043 28.9857 96.5474 29.2236C96.896 29.4561 97.3138 29.5723 97.8008 29.5723ZM106.185 31.1577C105.631 31.1577 105.117 31.0581 104.641 30.8589C104.17 30.6541 103.769 30.3802 103.437 30.0371C103.111 29.6885 102.878 29.3011 102.74 28.875L104.118 28.269C104.267 28.6785 104.502 29.0244 104.823 29.3066C105.144 29.5833 105.57 29.7217 106.102 29.7217C106.434 29.7217 106.713 29.6663 106.94 29.5557C107.172 29.445 107.347 29.3011 107.463 29.124C107.579 28.9469 107.637 28.7588 107.637 28.5596C107.637 28.3327 107.562 28.1501 107.413 28.0117C107.264 27.8678 107.076 27.7544 106.849 27.6714C106.622 27.5884 106.306 27.4943 105.902 27.3892C105.343 27.2453 104.887 27.1014 104.533 26.9575C104.184 26.8081 103.882 26.5812 103.628 26.2769C103.379 25.967 103.254 25.5519 103.254 25.0317C103.254 24.5005 103.39 24.0495 103.661 23.6787C103.932 23.3024 104.295 23.0202 104.749 22.832C105.202 22.6439 105.703 22.5498 106.251 22.5498C106.937 22.5498 107.543 22.7048 108.069 23.0146C108.595 23.3245 109.012 23.7617 109.322 24.3262L107.994 25.0483C107.579 24.2902 106.979 23.9111 106.193 23.9111C105.8 23.9111 105.485 23.9969 105.247 24.1685C105.014 24.3345 104.898 24.5475 104.898 24.8076C104.898 25.0013 104.967 25.1646 105.105 25.2974C105.249 25.4246 105.429 25.5298 105.645 25.6128C105.861 25.6903 106.157 25.7816 106.533 25.8867C107.114 26.0472 107.59 26.2104 107.961 26.3765C108.332 26.5369 108.65 26.786 108.916 27.1235C109.187 27.4611 109.322 27.9121 109.322 28.4766C109.322 29.0632 109.176 29.5584 108.882 29.9624C108.589 30.3608 108.204 30.6597 107.729 30.8589C107.253 31.0581 106.738 31.1577 106.185 31.1577ZM111.265 19.271H113.058V21.0806H111.265V19.271ZM111.306 22.7075H113.016V31H111.306V22.7075ZM118.412 31.1577C117.631 31.1577 117.023 30.9391 116.585 30.502C116.154 30.0648 115.938 29.4616 115.938 28.6924V24.1519H114.577V22.7075H115.963V20.5327L117.648 19.3042V22.7075H119.806V24.1519H117.648V28.4019C117.648 28.8446 117.739 29.1628 117.922 29.3564C118.104 29.5446 118.367 29.6387 118.71 29.6387C119.042 29.6387 119.405 29.5501 119.798 29.373L119.806 30.9253C119.64 30.9862 119.43 31.0387 119.175 31.083C118.921 31.1328 118.666 31.1577 118.412 31.1577ZM125.077 31.1577C124.197 31.1577 123.45 30.9668 122.836 30.585C122.222 30.1976 121.76 29.6802 121.45 29.0327C121.14 28.3853 120.985 27.6714 120.985 26.8911C120.985 26.1219 121.132 25.408 121.425 24.7495C121.724 24.0854 122.169 23.5542 122.761 23.1558C123.359 22.7518 124.084 22.5498 124.936 22.5498C125.827 22.5498 126.552 22.7546 127.111 23.1641C127.675 23.568 128.079 24.0799 128.323 24.6997C128.572 25.3195 128.696 25.9587 128.696 26.6172C128.696 26.7721 128.688 26.9243 128.671 27.0737C128.66 27.2231 128.646 27.3283 128.63 27.3892H122.794C122.872 28.0864 123.099 28.6287 123.475 29.0161C123.857 29.4035 124.394 29.5972 125.085 29.5972C125.512 29.5972 125.896 29.5252 126.239 29.3813C126.588 29.2375 126.917 28.9967 127.227 28.6592L128.406 29.6968C127.946 30.1948 127.446 30.5628 126.903 30.8008C126.367 31.0387 125.758 31.1577 125.077 31.1577ZM127.003 26.144C127.014 25.9614 126.997 25.7871 126.953 25.6211C126.865 25.1341 126.643 24.7412 126.289 24.4424C125.935 24.1436 125.478 23.9941 124.919 23.9941C124.3 23.9941 123.813 24.1878 123.458 24.5752C123.11 24.9626 122.889 25.4855 122.794 26.144H127.003Z" fill="white"/>
</svg>