<svg width="225" height="54" viewBox="0 0 225 54" fill="none" xmlns="http://www.w3.org/2000/svg">
<rect x="1" y="1" width="223" height="52" rx="26" stroke="white" stroke-width="2"/>
<path d="M32.9473 20.1504H35.6982L31.3301 33H28.3594L24 20.1504H26.751L29.168 27.7969C29.3027 28.248 29.4404 28.7754 29.5811 29.3789C29.7275 29.9766 29.8184 30.3926 29.8535 30.627C29.918 30.0879 30.1377 29.1445 30.5127 27.7969L32.9473 20.1504ZM36.999 20.6338C36.999 19.7607 37.4854 19.3242 38.458 19.3242C39.4307 19.3242 39.917 19.7607 39.917 20.6338C39.917 21.0498 39.7939 21.375 39.5479 21.6094C39.3076 21.8379 38.9443 21.9521 38.458 21.9521C37.4854 21.9521 36.999 21.5127 36.999 20.6338ZM39.7939 33H37.1133V23.1738H39.7939V33ZM49.4707 30.082C49.4707 31.0898 49.1191 31.8574 48.416 32.3848C47.7188 32.9121 46.6729 33.1758 45.2783 33.1758C44.5635 33.1758 43.9541 33.126 43.4502 33.0264C42.9463 32.9326 42.4746 32.792 42.0352 32.6045V30.3896C42.5332 30.624 43.0928 30.8203 43.7139 30.9785C44.3408 31.1367 44.8916 31.2158 45.3662 31.2158C46.3389 31.2158 46.8252 30.9346 46.8252 30.3721C46.8252 30.1611 46.7607 29.9912 46.6318 29.8623C46.5029 29.7275 46.2803 29.5781 45.9639 29.4141C45.6475 29.2441 45.2256 29.0479 44.6982 28.8252C43.9424 28.5088 43.3857 28.2158 43.0283 27.9463C42.6768 27.6768 42.4189 27.3691 42.2549 27.0234C42.0967 26.6719 42.0176 26.2412 42.0176 25.7314C42.0176 24.8584 42.3545 24.1846 43.0283 23.71C43.708 23.2295 44.6689 22.9893 45.9111 22.9893C47.0947 22.9893 48.2461 23.2471 49.3652 23.7627L48.5566 25.6963C48.0645 25.4854 47.6045 25.3125 47.1768 25.1777C46.749 25.043 46.3125 24.9756 45.8672 24.9756C45.0762 24.9756 44.6807 25.1895 44.6807 25.6172C44.6807 25.8574 44.8066 26.0654 45.0586 26.2412C45.3164 26.417 45.876 26.6777 46.7373 27.0234C47.5049 27.334 48.0674 27.624 48.4248 27.8936C48.7822 28.1631 49.0459 28.4736 49.2158 28.8252C49.3857 29.1768 49.4707 29.5957 49.4707 30.082ZM51.4482 20.6338C51.4482 19.7607 51.9346 19.3242 52.9072 19.3242C53.8799 19.3242 54.3662 19.7607 54.3662 20.6338C54.3662 21.0498 54.2432 21.375 53.9971 21.6094C53.7568 21.8379 53.3936 21.9521 52.9072 21.9521C51.9346 21.9521 51.4482 21.5127 51.4482 20.6338ZM54.2432 33H51.5625V23.1738H54.2432V33ZM61.2041 31.04C61.6729 31.04 62.2354 30.9375 62.8916 30.7324V32.7275C62.2236 33.0264 61.4033 33.1758 60.4307 33.1758C59.3584 33.1758 58.5762 32.9062 58.084 32.3672C57.5977 31.8223 57.3545 31.0078 57.3545 29.9238V25.1865H56.0713V24.0527L57.5479 23.1562L58.3213 21.082H60.0352V23.1738H62.7861V25.1865H60.0352V29.9238C60.0352 30.3047 60.1406 30.5859 60.3516 30.7676C60.5684 30.9492 60.8525 31.04 61.2041 31.04ZM77.6396 33L76.708 29.9414H72.0234L71.0918 33H68.1562L72.6914 20.0977H76.0225L80.5752 33H77.6396ZM76.0576 27.6562C75.1963 24.8848 74.71 23.3174 74.5986 22.9541C74.4932 22.5908 74.417 22.3037 74.3701 22.0928C74.1768 22.8428 73.623 24.6973 72.709 27.6562H76.0576ZM87.3867 33.1758C86.2324 33.1758 85.3271 32.7568 84.6709 31.9189H84.5303C84.624 32.7393 84.6709 33.2139 84.6709 33.3428V37.3242H81.9902V23.1738H84.1699L84.5479 24.4482H84.6709C85.2979 23.4756 86.2266 22.9893 87.457 22.9893C88.6172 22.9893 89.5254 23.4375 90.1816 24.334C90.8379 25.2305 91.166 26.4756 91.166 28.0693C91.166 29.1182 91.0107 30.0293 90.7002 30.8027C90.3955 31.5762 89.959 32.165 89.3906 32.5693C88.8223 32.9736 88.1543 33.1758 87.3867 33.1758ZM86.5957 25.1338C85.9336 25.1338 85.4502 25.3389 85.1455 25.749C84.8408 26.1533 84.6826 26.8242 84.6709 27.7617V28.0518C84.6709 29.1064 84.8262 29.8623 85.1367 30.3193C85.4531 30.7764 85.9512 31.0049 86.6309 31.0049C87.832 31.0049 88.4326 30.0146 88.4326 28.0342C88.4326 27.0674 88.2832 26.3438 87.9844 25.8633C87.6914 25.377 87.2285 25.1338 86.5957 25.1338ZM98.7773 33.1758C97.623 33.1758 96.7178 32.7568 96.0615 31.9189H95.9209C96.0146 32.7393 96.0615 33.2139 96.0615 33.3428V37.3242H93.3809V23.1738H95.5605L95.9385 24.4482H96.0615C96.6885 23.4756 97.6172 22.9893 98.8477 22.9893C100.008 22.9893 100.916 23.4375 101.572 24.334C102.229 25.2305 102.557 26.4756 102.557 28.0693C102.557 29.1182 102.401 30.0293 102.091 30.8027C101.786 31.5762 101.35 32.165 100.781 32.5693C100.213 32.9736 99.5449 33.1758 98.7773 33.1758ZM97.9863 25.1338C97.3242 25.1338 96.8408 25.3389 96.5361 25.749C96.2314 26.1533 96.0732 26.8242 96.0615 27.7617V28.0518C96.0615 29.1064 96.2168 29.8623 96.5273 30.3193C96.8438 30.7764 97.3418 31.0049 98.0215 31.0049C99.2227 31.0049 99.8232 30.0146 99.8232 28.0342C99.8232 27.0674 99.6738 26.3438 99.375 25.8633C99.082 25.377 98.6191 25.1338 97.9863 25.1338ZM117.243 29.4316C117.243 30.5918 116.824 31.5059 115.986 32.1738C115.154 32.8418 113.994 33.1758 112.506 33.1758C111.135 33.1758 109.922 32.918 108.867 32.4023V29.8711C109.734 30.2578 110.467 30.5303 111.064 30.6885C111.668 30.8467 112.219 30.9258 112.717 30.9258C113.314 30.9258 113.771 30.8115 114.088 30.583C114.41 30.3545 114.571 30.0146 114.571 29.5635C114.571 29.3115 114.501 29.0889 114.36 28.8955C114.22 28.6963 114.012 28.5059 113.736 28.3242C113.467 28.1426 112.913 27.8525 112.075 27.4541C111.29 27.085 110.701 26.7305 110.309 26.3906C109.916 26.0508 109.603 25.6553 109.368 25.2041C109.134 24.7529 109.017 24.2256 109.017 23.6221C109.017 22.4854 109.4 21.5918 110.168 20.9414C110.941 20.291 112.008 19.9658 113.367 19.9658C114.035 19.9658 114.671 20.0449 115.274 20.2031C115.884 20.3613 116.52 20.584 117.182 20.8711L116.303 22.9893C115.617 22.708 115.049 22.5117 114.598 22.4004C114.152 22.2891 113.713 22.2334 113.279 22.2334C112.764 22.2334 112.368 22.3535 112.093 22.5938C111.817 22.834 111.68 23.1475 111.68 23.5342C111.68 23.7744 111.735 23.9854 111.847 24.167C111.958 24.3428 112.134 24.5156 112.374 24.6855C112.62 24.8496 113.197 25.1484 114.105 25.582C115.307 26.1562 116.13 26.7334 116.575 27.3135C117.021 27.8877 117.243 28.5938 117.243 29.4316ZM123.501 31.04C123.97 31.04 124.532 30.9375 125.188 30.7324V32.7275C124.521 33.0264 123.7 33.1758 122.728 33.1758C121.655 33.1758 120.873 32.9062 120.381 32.3672C119.895 31.8223 119.651 31.0078 119.651 29.9238V25.1865H118.368V24.0527L119.845 23.1562L120.618 21.082H122.332V23.1738H125.083V25.1865H122.332V29.9238C122.332 30.3047 122.438 30.5859 122.648 30.7676C122.865 30.9492 123.149 31.04 123.501 31.04ZM129.319 28.0693C129.319 29.042 129.478 29.7773 129.794 30.2754C130.116 30.7734 130.638 31.0225 131.358 31.0225C132.073 31.0225 132.586 30.7764 132.896 30.2842C133.213 29.7861 133.371 29.0479 133.371 28.0693C133.371 27.0967 133.213 26.3672 132.896 25.8809C132.58 25.3945 132.062 25.1514 131.341 25.1514C130.626 25.1514 130.11 25.3945 129.794 25.8809C129.478 26.3613 129.319 27.0908 129.319 28.0693ZM136.113 28.0693C136.113 29.6689 135.691 30.9199 134.848 31.8223C134.004 32.7246 132.829 33.1758 131.323 33.1758C130.38 33.1758 129.548 32.9707 128.827 32.5605C128.106 32.1445 127.553 31.5498 127.166 30.7764C126.779 30.0029 126.586 29.1006 126.586 28.0693C126.586 26.4639 127.005 25.2158 127.843 24.3252C128.681 23.4346 129.858 22.9893 131.376 22.9893C132.319 22.9893 133.151 23.1943 133.872 23.6045C134.593 24.0146 135.146 24.6035 135.533 25.3711C135.92 26.1387 136.113 27.0381 136.113 28.0693ZM143.812 22.9893C144.176 22.9893 144.478 23.0156 144.718 23.0684L144.516 25.582C144.299 25.5234 144.035 25.4941 143.725 25.4941C142.869 25.4941 142.201 25.7139 141.721 26.1533C141.246 26.5928 141.009 27.208 141.009 27.999V33H138.328V23.1738H140.358L140.754 24.8262H140.886C141.19 24.2754 141.601 23.833 142.116 23.499C142.638 23.1592 143.203 22.9893 143.812 22.9893ZM150.571 24.8965C150.003 24.8965 149.558 25.0781 149.235 25.4414C148.913 25.7988 148.729 26.3086 148.682 26.9707H152.443C152.432 26.3086 152.259 25.7988 151.925 25.4414C151.591 25.0781 151.14 24.8965 150.571 24.8965ZM150.949 33.1758C149.367 33.1758 148.131 32.7393 147.24 31.8662C146.35 30.9932 145.904 29.7568 145.904 28.1572C145.904 26.5107 146.314 25.2393 147.135 24.3428C147.961 23.4404 149.101 22.9893 150.554 22.9893C151.942 22.9893 153.023 23.3848 153.797 24.1758C154.57 24.9668 154.957 26.0596 154.957 27.4541V28.7549H148.62C148.649 29.5166 148.875 30.1113 149.297 30.5391C149.719 30.9668 150.311 31.1807 151.072 31.1807C151.664 31.1807 152.224 31.1191 152.751 30.9961C153.278 30.873 153.829 30.6768 154.403 30.4072V32.4814C153.935 32.7158 153.434 32.8887 152.9 33C152.367 33.1172 151.717 33.1758 150.949 33.1758Z" fill="white"/>
<path d="M193.57 22.582C193.297 22.8555 193.324 23.2656 193.57 23.5391L196.879 26.6562H189.031C188.648 26.6562 188.375 26.957 188.375 27.3125V28.1875C188.375 28.5703 188.648 28.8438 189.031 28.8438H196.879L193.57 31.9883C193.324 32.2617 193.324 32.6719 193.57 32.9453L194.172 33.5469C194.445 33.793 194.855 33.793 195.102 33.5469L200.434 28.2148C200.68 27.9688 200.68 27.5586 200.434 27.2852L195.102 21.9805C194.855 21.7344 194.445 21.7344 194.172 21.9805L193.57 22.582Z" fill="white"/>
</svg>
