<svg xmlns="http://www.w3.org/2000/svg" width="27" height="27" viewBox="0 0 27 27">
  <rect id="Rectangle_77" data-name="Rectangle 77" width="27" height="27" rx="13.5" fill="#31a1d3"/>
  <path id="Path_137" data-name="Path 137" d="M34.469,33.481a.121.121,0,0,1,.119-.1h2.853a4.524,4.524,0,0,0,4.429-3.63l.515-2.571a2.736,2.736,0,0,0-2.345-3.251c0,.019,0,.039,0,.061l-.522,2.571a4.772,4.772,0,0,1-4.668,3.824H32.1L30.82,36.767h0l-.62,3.1h2.993Z" transform="translate(-21.178 -15.835)" fill="#fff"/>
  <path id="Path_138" data-name="Path 138" d="M22.531,26.456l1.278-6.383a.119.119,0,0,1,.119-.1h2.853a4.529,4.529,0,0,0,4.429-3.63l.513-2.566v-.029a.388.388,0,0,1,.017-.121,1.043,1.043,0,0,0,.017-.121A2.736,2.736,0,0,0,29.038,10.5H22.721L19.54,26.456Z" transform="translate(-13.108 -5.669)" fill="#fff"/>
</svg>
