<svg xmlns="http://www.w3.org/2000/svg" width="22.478" height="22.478" viewBox="0 0 22.478 22.478">
  <path id="Rectangle_49" data-name="Rectangle 49" d="M11.239,0h0A11.239,11.239,0,0,1,22.478,11.239v0A11.239,11.239,0,0,1,11.239,22.478h0A11.239,11.239,0,0,1,0,11.239v0A11.239,11.239,0,0,1,11.239,0Z" fill="#31a1d3"/>
  <path id="Path_52" data-name="Path 52" d="M1186.474,850.73l-.917-.919a1.486,1.486,0,0,0-1.034-.427,1.47,1.47,0,0,0-1.034.418.893.893,0,0,1-1.136.111,6.165,6.165,0,0,1-1.732-1.728.935.935,0,0,1-.149-.594.922.922,0,0,1,.266-.551,1.463,1.463,0,0,0-.016-2.059l-.917-.919a1.471,1.471,0,0,0-2.077,0l-.267.265c-1.379,1.379-1.277,4.28,1.6,7.149a7.223,7.223,0,0,0,4.882,2.456,3.117,3.117,0,0,0,2.265-.862l.266-.265a1.465,1.465,0,0,0,0-2.076Zm-.588,1.485-.266.265c-1.089,1.087-3.487.889-5.971-1.594s-2.68-4.884-1.591-5.971l.259-.265a.634.634,0,0,1,.893,0l.917.92a.623.623,0,0,1,.188.44.656.656,0,0,1-.172.443,1.7,1.7,0,0,0-.5,1.056,1.755,1.755,0,0,0,.274,1.135,7.141,7.141,0,0,0,1.975,1.967,1.726,1.726,0,0,0,1.128.279,1.762,1.762,0,0,0,1.058-.5.62.62,0,0,1,.439-.178.644.644,0,0,1,.447.183l.917.92a.575.575,0,0,1,.141.2.646.646,0,0,1,0,.485A.682.682,0,0,1,1185.886,852.215Z" transform="translate(-1170.511 -837.548)" fill="#fff"/>
</svg>
