<svg xmlns="http://www.w3.org/2000/svg" width="27" height="27" viewBox="0 0 27 27">
  <g id="Group_105" data-name="Group 105" transform="translate(-0.464 0.35)">
    <g id="Group_103" data-name="Group 103" transform="translate(0 0)">
      <path id="Path_139" data-name="Path 139" d="M837.2,1673a12.746,12.746,0,1,0-15.612-9.013A12.748,12.748,0,0,0,837.2,1673Z" transform="translate(-819.973 -1646.952)" fill="#31a1d3"/>
      <rect id="Rectangle_79" data-name="Rectangle 79" width="27" height="27" rx="13.5" transform="translate(0.464 -0.35)" fill="#31a1d3"/>
      <path id="Path_143" data-name="Path 143" d="M12.713,16.969a4.206,4.206,0,0,1-2.555-.857,7.134,7.134,0,0,1-8.14-8.14A4.227,4.227,0,0,1,7.974,2.009a7.134,7.134,0,0,1,8.135,8.172,4.227,4.227,0,0,1-3.4,6.788Zm-2.257-2,.2.17a3.162,3.162,0,0,0,4.461-4.461l-.17-.2.048-.256a6.069,6.069,0,0,0-7.07-7.1l-.272.053-.2-.2A3.162,3.162,0,1,0,2.981,7.456l.2.2-.048.261a6.069,6.069,0,0,0,7.1,7.1Z" transform="translate(4.244 4.802)" fill="#fff"/>
      <path id="Path_144" data-name="Path 144" d="M12.737,16.333a5.909,5.909,0,0,1-2.055-.373A5.707,5.707,0,0,1,8.872,14.9l-.192-.17,1.464-1.757.2.165a5.042,5.042,0,0,0,1.193.735,3.1,3.1,0,0,0,1.235.25,1.432,1.432,0,0,0,.777-.176.415.415,0,0,0,.213-.378.458.458,0,0,0-.08-.3,1.012,1.012,0,0,0-.4-.245,8.875,8.875,0,0,0-1.065-.33,10.115,10.115,0,0,1-1.64-.532,2.539,2.539,0,0,1-1.065-.873A2.609,2.609,0,0,1,9.122,9.8a2.72,2.72,0,0,1,.437-1.544,2.891,2.891,0,0,1,1.187-1.012,3.881,3.881,0,0,1,1.688-.357,5.292,5.292,0,0,1,3.4,1.123l.192.154-1.288,1.863-.218-.154a3.817,3.817,0,0,0-2.129-.809,1.15,1.15,0,0,0-.671.16.383.383,0,0,0-.181.33.458.458,0,0,0,.091.314,1.1,1.1,0,0,0,.437.256,10.36,10.36,0,0,0,1.15.335,5.574,5.574,0,0,1,2.2,1.006,2.332,2.332,0,0,1,.783,1.869,2.7,2.7,0,0,1-.958,2.225A3.828,3.828,0,0,1,12.737,16.333ZM9.42,14.645a5.169,5.169,0,0,0,1.448.82,5.377,5.377,0,0,0,1.869.335,3.311,3.311,0,0,0,2.129-.655,2.13,2.13,0,0,0,.777-1.773,1.821,1.821,0,0,0-.58-1.48,5.063,5.063,0,0,0-1.954-.9,10.647,10.647,0,0,1-1.208-.357,1.6,1.6,0,0,1-.644-.4.942.942,0,0,1-.224-.623.926.926,0,0,1,.4-.788,1.65,1.65,0,0,1,.985-.277,4.115,4.115,0,0,1,2.193.756l.7-1.017a4.791,4.791,0,0,0-2.864-.9,3.354,3.354,0,0,0-1.469.309,2.364,2.364,0,0,0-.969.852,2.172,2.172,0,0,0-.346,1.224,2.13,2.13,0,0,0,.3,1.208,2.007,2.007,0,0,0,.836.692,9.583,9.583,0,0,0,1.555.532,9.274,9.274,0,0,1,1.134.351,1.5,1.5,0,0,1,.623.41.948.948,0,0,1,.192.6.958.958,0,0,1-.458.852,1.943,1.943,0,0,1-1.065.261,3.631,3.631,0,0,1-1.448-.293,5.372,5.372,0,0,1-1.113-.66Z" transform="translate(0.653 2.047)" fill="#fff"/>
    </g>
  </g>
</svg>
