<svg xmlns="http://www.w3.org/2000/svg" width="23" height="23" viewBox="0 0 23 23">
  <rect id="Rectangle_39" data-name="Rectangle 39" width="23" height="23" rx="11.5" fill="#31a1d3"/>
  <path id="Path_42" data-name="Path 42" d="M444.065,1860.305a6.638,6.638,0,0,1-1.432-.158l-1.994,1.2.027-1.968a4.913,4.913,0,0,1-2.531-4.163c0-2.809,2.655-5.081,5.931-5.081s5.931,2.271,5.931,5.081S447.34,1860.305,444.065,1860.305Zm0-11.016c-3.744,0-6.779,2.657-6.779,5.928a5.667,5.667,0,0,0,2.542,4.625v3l2.969-1.8a8.316,8.316,0,0,0,1.267.108c3.743,0,6.778-2.657,6.778-5.935S447.808,1849.29,444.065,1849.29Zm2.965,4.657H441.1a.424.424,0,1,0,0,.848h5.931a.424.424,0,0,0,0-.848Zm-.847,2.543h-4.237a.424.424,0,0,0,0,.848h4.237a.424.424,0,0,0,0-.848Z" transform="translate(-432.465 -1844.523)" fill="#fff" fill-rule="evenodd"/>
</svg>
