<svg xmlns="http://www.w3.org/2000/svg" width="27" height="27" viewBox="0 0 27 27">
  <rect id="Rectangle_72" data-name="Rectangle 72" width="27" height="27" rx="13.5" fill="#31a1d3"/>
  <g id="whatsapp_1_" data-name="whatsapp (1)" transform="translate(5.317 4.735)">
    <g id="Group_52" data-name="Group 52">
      <path id="Path_55" data-name="Path 55" d="M8.166,0a8.168,8.168,0,0,0-6.93,12.489c-.323,1.13-.905,3.268-.911,3.29a.314.314,0,0,0,.4.383l3.237-1A8.167,8.167,0,1,0,8.166,0Zm0,15.7a7.519,7.519,0,0,1-4-1.147A.314.314,0,0,0,4,14.51a.319.319,0,0,0-.092.014l-2.826.87c.208-.758.581-2.114.8-2.868a.315.315,0,0,0-.038-.258A7.539,7.539,0,1,1,8.166,15.7Z" fill="#fff"/>
      <path id="Path_56" data-name="Path 56" d="M19.907,16.8c-.58-.322-1.074-.645-1.434-.88-.275-.18-.474-.309-.62-.383a.714.714,0,0,0-.834.059.314.314,0,0,0-.039.048,4.415,4.415,0,0,1-1.137,1.275,7.563,7.563,0,0,1-1.931-1.25,4.182,4.182,0,0,1-1.528-1.93c.569-.586.775-.955.775-1.374a8.888,8.888,0,0,0-1.191-2.421c-.183-.183-.6-.211-1.226-.086a.317.317,0,0,0-.16.086,4.1,4.1,0,0,0-1.014,4.1c.932,2.422,3.323,5.237,6.371,5.694a6.606,6.606,0,0,0,.975.078,2.891,2.891,0,0,0,3.15-2.692A.313.313,0,0,0,19.907,16.8Zm-3.875,2.32c-3.224-.483-5.254-3.677-5.878-5.3a3.458,3.458,0,0,1,.809-3.366,2.369,2.369,0,0,1,.581-.04,11.28,11.28,0,0,1,.987,1.949c0,.165-.054.394-.693,1.034a.313.313,0,0,0-.092.222c0,1.645,3.469,3.926,4.083,3.926.534,0,1.231-.9,1.628-1.483a.3.3,0,0,1,.117.036c.113.057.309.185.557.347.327.214.762.5,1.275.792C19.172,18.355,18.52,19.489,16.032,19.115Z" transform="translate(-6.406 -6.705)" fill="#fff"/>
    </g>
  </g>
</svg>
